<svg width="135" height="32" viewBox="0 0 135 32" fill="none" xmlns="http://www.w3.org/2000/svg">
<path d="M9.336 25.34C7.5 25.34 5.936 25.0453 4.644 24.456C3.37467 23.8667 2.4 23.1073 1.72 22.178C1.04 21.2487 0.677333 20.2627 0.632 19.22C0.632 19.0387 0.7 18.88 0.836 18.744C0.972 18.608 1.142 18.54 1.346 18.54H2.026C2.25267 18.54 2.42267 18.608 2.536 18.744C2.672 18.88 2.75133 19.0387 2.774 19.22C2.86467 19.8547 3.148 20.4893 3.624 21.124C4.1 21.736 4.80267 22.2573 5.732 22.688C6.66133 23.096 7.86267 23.3 9.336 23.3C11.5573 23.3 13.178 22.9033 14.198 22.11C15.218 21.294 15.728 20.206 15.728 18.846C15.728 17.9393 15.456 17.214 14.912 16.67C14.3907 16.1033 13.586 15.6047 12.498 15.174C11.41 14.7207 10.016 14.222 8.316 13.678C6.70667 13.1567 5.38067 12.624 4.338 12.08C3.29533 11.5133 2.52467 10.8333 2.026 10.04C1.55 9.24667 1.312 8.22667 1.312 6.98C1.312 5.824 1.618 4.79267 2.23 3.886C2.842 2.95666 3.726 2.22 4.882 1.676C6.06067 1.132 7.48867 0.859999 9.166 0.859999C10.5033 0.859999 11.6707 1.04133 12.668 1.404C13.6653 1.76667 14.4927 2.254 15.15 2.866C15.8073 3.45533 16.306 4.10133 16.646 4.804C16.986 5.484 17.1673 6.15267 17.19 6.81C17.19 6.96867 17.1333 7.12733 17.02 7.286C16.9067 7.422 16.7253 7.49 16.476 7.49H15.796C15.6827 7.49 15.5353 7.44467 15.354 7.354C15.1953 7.26333 15.0933 7.082 15.048 6.81C14.912 5.67667 14.3113 4.74733 13.246 4.022C12.2033 3.274 10.8433 2.9 9.166 2.9C7.48867 2.9 6.11733 3.22867 5.052 3.886C3.98667 4.54333 3.454 5.57467 3.454 6.98C3.454 7.88667 3.692 8.63467 4.168 9.224C4.644 9.79067 5.392 10.3007 6.412 10.754C7.432 11.1847 8.74667 11.6607 10.356 12.182C12.056 12.726 13.4613 13.27 14.572 13.814C15.6827 14.358 16.51 15.0267 17.054 15.82C17.598 16.5907 17.87 17.5993 17.87 18.846C17.87 20.2287 17.5187 21.4073 16.816 22.382C16.136 23.334 15.1613 24.0707 13.892 24.592C12.6227 25.0907 11.104 25.34 9.336 25.34ZM23.0879 25C22.8613 25 22.6799 24.932 22.5439 24.796C22.4079 24.66 22.3399 24.4787 22.3399 24.252V8.068C22.3399 7.84133 22.4079 7.66 22.5439 7.524C22.6799 7.388 22.8613 7.32 23.0879 7.32H23.6659C23.8926 7.32 24.0739 7.388 24.2099 7.524C24.3459 7.66 24.4139 7.84133 24.4139 8.068V24.252C24.4139 24.4787 24.3459 24.66 24.2099 24.796C24.0739 24.932 23.8926 25 23.6659 25H23.0879ZM22.7139 3.682C22.4873 3.682 22.3059 3.614 22.1699 3.478C22.0339 3.342 21.9659 3.16066 21.9659 2.934V1.642C21.9659 1.41533 22.0339 1.234 22.1699 1.098C22.3059 0.939332 22.4873 0.859999 22.7139 0.859999H24.0059C24.2326 0.859999 24.4139 0.939332 24.5499 1.098C24.7086 1.234 24.7879 1.41533 24.7879 1.642V2.934C24.7879 3.16066 24.7086 3.342 24.5499 3.478C24.4139 3.614 24.2326 3.682 24.0059 3.682H22.7139ZM30.6583 25C30.4316 25 30.2503 24.932 30.1143 24.796C29.9783 24.66 29.9103 24.4787 29.9103 24.252V8.068C29.9103 7.84133 29.9783 7.66 30.1143 7.524C30.2503 7.388 30.4316 7.32 30.6583 7.32H31.2363C31.4629 7.32 31.6443 7.388 31.7803 7.524C31.9163 7.66 31.9843 7.84133 31.9843 8.068V9.258C32.5509 8.53267 33.2196 7.97733 33.9903 7.592C34.7836 7.184 35.7356 6.98 36.8463 6.98C39.3849 6.98 41.1983 8.04533 42.2863 10.176C42.8076 9.20133 43.5669 8.43067 44.5643 7.864C45.5843 7.27467 46.7516 6.98 48.0663 6.98C49.2676 6.98 50.3443 7.26333 51.2963 7.83C52.2709 8.374 53.0303 9.19 53.5743 10.278C54.1409 11.366 54.4243 12.726 54.4243 14.358V24.252C54.4243 24.4787 54.3563 24.66 54.2203 24.796C54.0843 24.932 53.9029 25 53.6763 25H53.0983C52.8716 25 52.6903 24.932 52.5543 24.796C52.4183 24.66 52.3503 24.4787 52.3503 24.252V14.698C52.3503 13.202 52.1349 12.046 51.7043 11.23C51.2736 10.3913 50.7069 9.802 50.0043 9.462C49.3016 9.122 48.5423 8.952 47.7263 8.952C47.0463 8.952 46.3549 9.122 45.6523 9.462C44.9496 9.802 44.3603 10.3913 43.8843 11.23C43.4309 12.046 43.2043 13.202 43.2043 14.698V24.252C43.2043 24.4787 43.1363 24.66 43.0003 24.796C42.8643 24.932 42.6829 25 42.4563 25H41.8783C41.6516 25 41.4703 24.932 41.3343 24.796C41.1983 24.66 41.1303 24.4787 41.1303 24.252V14.698C41.1303 13.202 40.9036 12.046 40.4503 11.23C39.9969 10.3913 39.4189 9.802 38.7163 9.462C38.0136 9.122 37.2769 8.952 36.5063 8.952C35.8263 8.952 35.1349 9.122 34.4323 9.462C33.7296 9.802 33.1403 10.3913 32.6643 11.23C32.2109 12.046 31.9843 13.1907 31.9843 14.664V24.252C31.9843 24.4787 31.9163 24.66 31.7803 24.796C31.6443 24.932 31.4629 25 31.2363 25H30.6583ZM60.5419 31.46C60.3152 31.46 60.1339 31.392 59.9979 31.256C59.8619 31.12 59.7939 30.9387 59.7939 30.712V8.068C59.7939 7.84133 59.8619 7.66 59.9979 7.524C60.1339 7.388 60.3152 7.32 60.5419 7.32H61.1199C61.3465 7.32 61.5279 7.388 61.6639 7.524C61.7999 7.66 61.8679 7.84133 61.8679 8.068V9.666C62.4345 8.89533 63.1712 8.26067 64.0779 7.762C65.0072 7.24067 66.1745 6.98 67.5799 6.98C68.9172 6.98 70.0392 7.218 70.9459 7.694C71.8525 8.14733 72.5892 8.75933 73.1559 9.53C73.7225 10.3007 74.1419 11.162 74.4139 12.114C74.6859 13.066 74.8332 14.0407 74.8559 15.038C74.8785 15.378 74.8899 15.752 74.8899 16.16C74.8899 16.568 74.8785 16.942 74.8559 17.282C74.8332 18.2793 74.6859 19.254 74.4139 20.206C74.1419 21.158 73.7225 22.0193 73.1559 22.79C72.5892 23.5607 71.8525 24.184 70.9459 24.66C70.0392 25.1133 68.9172 25.34 67.5799 25.34C66.1745 25.34 65.0072 25.0793 64.0779 24.558C63.1712 24.0367 62.4345 23.402 61.8679 22.654V30.712C61.8679 30.9387 61.7999 31.12 61.6639 31.256C61.5279 31.392 61.3465 31.46 61.1199 31.46H60.5419ZM67.3759 23.368C68.7132 23.368 69.7672 23.0733 70.5379 22.484C71.3085 21.8947 71.8639 21.124 72.2039 20.172C72.5439 19.22 72.7365 18.2 72.7819 17.112C72.8045 16.4773 72.8045 15.8427 72.7819 15.208C72.7365 14.12 72.5439 13.1 72.2039 12.148C71.8639 11.196 71.3085 10.4253 70.5379 9.836C69.7672 9.24667 68.7132 8.952 67.3759 8.952C66.0839 8.952 65.0412 9.258 64.2479 9.87C63.4545 10.482 62.8652 11.2527 62.4799 12.182C62.1172 13.0887 61.9132 14.0067 61.8679 14.936C61.8452 15.276 61.8339 15.718 61.8339 16.262C61.8339 16.806 61.8452 17.248 61.8679 17.588C61.8905 18.4947 62.0945 19.39 62.4799 20.274C62.8879 21.158 63.4885 21.8947 64.2819 22.484C65.0979 23.0733 66.1292 23.368 67.3759 23.368ZM80.2977 25C80.0711 25 79.8897 24.932 79.7537 24.796C79.6177 24.66 79.5497 24.4787 79.5497 24.252V1.608C79.5497 1.38133 79.6177 1.2 79.7537 1.064C79.8897 0.927999 80.0711 0.859999 80.2977 0.859999H80.8757C81.1024 0.859999 81.2837 0.927999 81.4197 1.064C81.5557 1.2 81.6237 1.38133 81.6237 1.608V24.252C81.6237 24.4787 81.5557 24.66 81.4197 24.796C81.2837 24.932 81.1024 25 80.8757 25H80.2977ZM87.9004 25C87.6738 25 87.4924 24.932 87.3564 24.796C87.2204 24.66 87.1524 24.4787 87.1524 24.252V8.068C87.1524 7.84133 87.2204 7.66 87.3564 7.524C87.4924 7.388 87.6738 7.32 87.9004 7.32H88.4784C88.7051 7.32 88.8864 7.388 89.0224 7.524C89.1584 7.66 89.2264 7.84133 89.2264 8.068V24.252C89.2264 24.4787 89.1584 24.66 89.0224 24.796C88.8864 24.932 88.7051 25 88.4784 25H87.9004ZM87.5264 3.682C87.2998 3.682 87.1184 3.614 86.9824 3.478C86.8464 3.342 86.7784 3.16066 86.7784 2.934V1.642C86.7784 1.41533 86.8464 1.234 86.9824 1.098C87.1184 0.939332 87.2998 0.859999 87.5264 0.859999H88.8184C89.0451 0.859999 89.2264 0.939332 89.3624 1.098C89.5211 1.234 89.6004 1.41533 89.6004 1.642V2.934C89.6004 3.16066 89.5211 3.342 89.3624 3.478C89.2264 3.614 89.0451 3.682 88.8184 3.682H87.5264ZM103.223 25.34C101.16 25.34 99.4714 24.9433 98.1568 24.15C96.8648 23.334 95.9014 22.2347 95.2668 20.852C94.6321 19.4693 94.2808 17.894 94.2127 16.126C94.1901 15.1967 94.1788 14.1993 94.1788 13.134C94.1788 12.0687 94.1901 11.0487 94.2127 10.074C94.2808 8.306 94.6321 6.73067 95.2668 5.348C95.9014 3.94267 96.8648 2.84333 98.1568 2.05C99.4714 1.25667 101.16 0.859999 103.223 0.859999C104.832 0.859999 106.203 1.08667 107.337 1.54C108.47 1.99333 109.388 2.594 110.091 3.342C110.816 4.06733 111.349 4.86067 111.689 5.722C112.051 6.56067 112.255 7.388 112.301 8.204C112.323 8.408 112.255 8.578 112.097 8.714C111.961 8.82733 111.791 8.884 111.587 8.884H110.907C110.725 8.884 110.567 8.83867 110.431 8.748C110.295 8.63467 110.204 8.442 110.159 8.17C109.728 6.15267 108.912 4.77 107.711 4.022C106.532 3.274 105.036 2.9 103.223 2.9C101.16 2.9 99.5168 3.48933 98.2928 4.668C97.0914 5.824 96.4454 7.68267 96.3548 10.244C96.2868 12.1027 96.2868 14.0067 96.3548 15.956C96.4454 18.5173 97.0914 20.3873 98.2928 21.566C99.5168 22.722 101.16 23.3 103.223 23.3C105.036 23.3 106.532 22.926 107.711 22.178C108.912 21.43 109.728 20.0473 110.159 18.03C110.204 17.758 110.295 17.5767 110.431 17.486C110.567 17.3727 110.725 17.316 110.907 17.316H111.587C111.791 17.316 111.961 17.384 112.097 17.52C112.255 17.6333 112.323 17.792 112.301 17.996C112.255 18.812 112.051 19.6507 111.689 20.512C111.349 21.3507 110.816 22.144 110.091 22.892C109.388 23.6173 108.47 24.2067 107.337 24.66C106.203 25.1133 104.832 25.34 103.223 25.34ZM123.954 25C123.659 25 123.421 24.932 123.24 24.796C123.059 24.66 122.911 24.456 122.798 24.184L114.91 2.254C114.865 2.118 114.842 1.99333 114.842 1.88C114.842 1.69867 114.91 1.54 115.046 1.404C115.182 1.268 115.341 1.2 115.522 1.2H116.236C116.463 1.2 116.633 1.268 116.746 1.404C116.882 1.51733 116.961 1.61933 116.984 1.71L124.43 22.518L131.876 1.71C131.921 1.61933 132.001 1.51733 132.114 1.404C132.227 1.268 132.397 1.2 132.624 1.2H133.338C133.519 1.2 133.678 1.268 133.814 1.404C133.95 1.54 134.018 1.69867 134.018 1.88C134.018 1.99333 133.995 2.118 133.95 2.254L126.062 24.184C125.971 24.456 125.835 24.66 125.654 24.796C125.473 24.932 125.223 25 124.906 25H123.954Z" fill="#193B65"/>
</svg>
