<svg width="1440" height="711" viewBox="0 0 1440 711" fill="none" xmlns="http://www.w3.org/2000/svg">
<g clip-path="url(#clip0_2140_1747)">
<path fill-rule="evenodd" clip-rule="evenodd" d="M152 150V152H0V150H28V142H8V122H0V120H8V80H50V100H70V142H30V150H120V142H80V100H100V80H142V120H150V30H142V70H100V50H80V8H120V0H122V8H142V28H150V0H152V150ZM150 150V122H142V142H122V150H150ZM82 30V48H100V30H82ZM102 48H122V68H140V30H120V10H82V28H102V48ZM102 50V68H120V50H102ZM122 28H140V10H122V28ZM68 120V102H50V120H68ZM48 102H28V82H10V120H30V140H68V122H48V102ZM48 100V82H30V100H48ZM28 122H10V140H28V122ZM82 122V140H120V120H140V82H122V102H102V122H82ZM100 102H82V120H100V102ZM102 100H120V82H102V100ZM122 140V122H140V140H122ZM30 0H28V8H8V28H0V30H8V70H50V50H70V8H30V0ZM50 48H68V30H50V48ZM68 28H48V48H28V68H10V30H30V10H68V28ZM30 50H48V68H30V50ZM28 10H10V28H28V10Z" fill="#335177"/>
</g>
<path d="M0 152V0H152" stroke="#335177" stroke-width="2"/>
<g clip-path="url(#clip1_2140_1747)">
<path fill-rule="evenodd" clip-rule="evenodd" d="M152 302V304H0V302H28V294H8V274H0V272H8V232H50V252H70V294H30V302H120V294H80V252H100V232H142V272H150V182H142V222H100V202H80V160H120V152H122V160H142V180H150V152H152V302ZM150 302V274H142V294H122V302H150ZM82 182V200H100V182H82ZM102 200H122V220H140V182H120V162H82V180H102V200ZM102 202V220H120V202H102ZM122 180H140V162H122V180ZM68 272V254H50V272H68ZM48 254H28V234H10V272H30V292H68V274H48V254ZM48 252V234H30V252H48ZM28 274H10V292H28V274ZM82 274V292H120V272H140V234H122V254H102V274H82ZM100 254H82V272H100V254ZM102 252H120V234H102V252ZM122 292V274H140V292H122ZM30 152H28V160H8V180H0V182H8V222H50V202H70V160H30V152ZM50 200H68V182H50V200ZM68 180H48V200H28V220H10V182H30V162H68V180ZM30 202H48V220H30V202ZM28 162H10V180H28V162Z" fill="#335177"/>
</g>
<path d="M0 304V152H152" stroke="#335177" stroke-width="2"/>
<g clip-path="url(#clip2_2140_1747)">
<path fill-rule="evenodd" clip-rule="evenodd" d="M152 454V456H0V454H28V446H8V426H0V424H8V384H50V404H70V446H30V454H120V446H80V404H100V384H142V424H150V334H142V374H100V354H80V312H120V304H122V312H142V332H150V304H152V454ZM150 454V426H142V446H122V454H150ZM82 334V352H100V334H82ZM102 352H122V372H140V334H120V314H82V332H102V352ZM102 354V372H120V354H102ZM122 332H140V314H122V332ZM68 424V406H50V424H68ZM48 406H28V386H10V424H30V444H68V426H48V406ZM48 404V386H30V404H48ZM28 426H10V444H28V426ZM82 426V444H120V424H140V386H122V406H102V426H82ZM100 406H82V424H100V406ZM102 404H120V386H102V404ZM122 444V426H140V444H122ZM30 304H28V312H8V332H0V334H8V374H50V354H70V312H30V304ZM50 352H68V334H50V352ZM68 332H48V352H28V372H10V334H30V314H68V332ZM30 354H48V372H30V354ZM28 314H10V332H28V314Z" fill="#335177"/>
</g>
<path d="M0 456V304H152" stroke="#335177" stroke-width="2"/>
<g clip-path="url(#clip3_2140_1747)">
<path fill-rule="evenodd" clip-rule="evenodd" d="M152 606V608H0V606H28V598H8V578H0V576H8V536H50V556H70V598H30V606H120V598H80V556H100V536H142V576H150V486H142V526H100V506H80V464H120V456H122V464H142V484H150V456H152V606ZM150 606V578H142V598H122V606H150ZM82 486V504H100V486H82ZM102 504H122V524H140V486H120V466H82V484H102V504ZM102 506V524H120V506H102ZM122 484H140V466H122V484ZM68 576V558H50V576H68ZM48 558H28V538H10V576H30V596H68V578H48V558ZM48 556V538H30V556H48ZM28 578H10V596H28V578ZM82 578V596H120V576H140V538H122V558H102V578H82ZM100 558H82V576H100V558ZM102 556H120V538H102V556ZM122 596V578H140V596H122ZM30 456H28V464H8V484H0V486H8V526H50V506H70V464H30V456ZM50 504H68V486H50V504ZM68 484H48V504H28V524H10V486H30V466H68V484ZM30 506H48V524H30V506ZM28 466H10V484H28V466Z" fill="#335177"/>
</g>
<path d="M0 608V456H152" stroke="#335177" stroke-width="2"/>
<g clip-path="url(#clip4_2140_1747)">
<path fill-rule="evenodd" clip-rule="evenodd" d="M152 758V760H0V758H28V750H8V730H0V728H8V688H50V708H70V750H30V758H120V750H80V708H100V688H142V728H150V638H142V678H100V658H80V616H120V608H122V616H142V636H150V608H152V758ZM150 758V730H142V750H122V758H150ZM82 638V656H100V638H82ZM102 656H122V676H140V638H120V618H82V636H102V656ZM102 658V676H120V658H102ZM122 636H140V618H122V636ZM68 728V710H50V728H68ZM48 710H28V690H10V728H30V748H68V730H48V710ZM48 708V690H30V708H48ZM28 730H10V748H28V730ZM82 730V748H120V728H140V690H122V710H102V730H82ZM100 710H82V728H100V710ZM102 708H120V690H102V708ZM122 748V730H140V748H122ZM30 608H28V616H8V636H0V638H8V678H50V658H70V616H30V608ZM50 656H68V638H50V656ZM68 636H48V656H28V676H10V638H30V618H68V636ZM30 658H48V676H30V658ZM28 618H10V636H28V618Z" fill="#335177"/>
</g>
<path d="M0 760V608H152" stroke="#335177" stroke-width="2"/>
<g clip-path="url(#clip5_2140_1747)">
<path fill-rule="evenodd" clip-rule="evenodd" d="M760 150V152H608V150H636V142H616V122H608V120H616V80H658V100H678V142H638V150H728V142H688V100H708V80H750V120H758V30H750V70H708V50H688V8H728V0H730V8H750V28H758V0H760V150ZM758 150V122H750V142H730V150H758ZM690 30V48H708V30H690ZM710 48H730V68H748V30H728V10H690V28H710V48ZM710 50V68H728V50H710ZM730 28H748V10H730V28ZM676 120V102H658V120H676ZM656 102H636V82H618V120H638V140H676V122H656V102ZM656 100V82H638V100H656ZM636 122H618V140H636V122ZM690 122V140H728V120H748V82H730V102H710V122H690ZM708 102H690V120H708V102ZM710 100H728V82H710V100ZM730 140V122H748V140H730ZM638 0H636V8H616V28H608V30H616V70H658V50H678V8H638V0ZM658 48H676V30H658V48ZM676 28H656V48H636V68H618V30H638V10H676V28ZM638 50H656V68H638V50ZM636 10H618V28H636V10Z" fill="#335177"/>
</g>
<path d="M608 152V0H760" stroke="#335177" stroke-width="2"/>
<g clip-path="url(#clip6_2140_1747)">
<path fill-rule="evenodd" clip-rule="evenodd" d="M760 302V304H608V302H636V294H616V274H608V272H616V232H658V252H678V294H638V302H728V294H688V252H708V232H750V272H758V182H750V222H708V202H688V160H728V152H730V160H750V180H758V152H760V302ZM758 302V274H750V294H730V302H758ZM690 182V200H708V182H690ZM710 200H730V220H748V182H728V162H690V180H710V200ZM710 202V220H728V202H710ZM730 180H748V162H730V180ZM676 272V254H658V272H676ZM656 254H636V234H618V272H638V292H676V274H656V254ZM656 252V234H638V252H656ZM636 274H618V292H636V274ZM690 274V292H728V272H748V234H730V254H710V274H690ZM708 254H690V272H708V254ZM710 252H728V234H710V252ZM730 292V274H748V292H730ZM638 152H636V160H616V180H608V182H616V222H658V202H678V160H638V152ZM658 200H676V182H658V200ZM676 180H656V200H636V220H618V182H638V162H676V180ZM638 202H656V220H638V202ZM636 162H618V180H636V162Z" fill="#335177"/>
</g>
<path d="M608 304V152H760" stroke="#335177" stroke-width="2"/>
<g clip-path="url(#clip7_2140_1747)">
<path fill-rule="evenodd" clip-rule="evenodd" d="M760 454V456H608V454H636V446H616V426H608V424H616V384H658V404H678V446H638V454H728V446H688V404H708V384H750V424H758V334H750V374H708V354H688V312H728V304H730V312H750V332H758V304H760V454ZM758 454V426H750V446H730V454H758ZM690 334V352H708V334H690ZM710 352H730V372H748V334H728V314H690V332H710V352ZM710 354V372H728V354H710ZM730 332H748V314H730V332ZM676 424V406H658V424H676ZM656 406H636V386H618V424H638V444H676V426H656V406ZM656 404V386H638V404H656ZM636 426H618V444H636V426ZM690 426V444H728V424H748V386H730V406H710V426H690ZM708 406H690V424H708V406ZM710 404H728V386H710V404ZM730 444V426H748V444H730ZM638 304H636V312H616V332H608V334H616V374H658V354H678V312H638V304ZM658 352H676V334H658V352ZM676 332H656V352H636V372H618V334H638V314H676V332ZM638 354H656V372H638V354ZM636 314H618V332H636V314Z" fill="#335177"/>
</g>
<path d="M608 456V304H760" stroke="#335177" stroke-width="2"/>
<g clip-path="url(#clip8_2140_1747)">
<path fill-rule="evenodd" clip-rule="evenodd" d="M760 606V608H608V606H636V598H616V578H608V576H616V536H658V556H678V598H638V606H728V598H688V556H708V536H750V576H758V486H750V526H708V506H688V464H728V456H730V464H750V484H758V456H760V606ZM758 606V578H750V598H730V606H758ZM690 486V504H708V486H690ZM710 504H730V524H748V486H728V466H690V484H710V504ZM710 506V524H728V506H710ZM730 484H748V466H730V484ZM676 576V558H658V576H676ZM656 558H636V538H618V576H638V596H676V578H656V558ZM656 556V538H638V556H656ZM636 578H618V596H636V578ZM690 578V596H728V576H748V538H730V558H710V578H690ZM708 558H690V576H708V558ZM710 556H728V538H710V556ZM730 596V578H748V596H730ZM638 456H636V464H616V484H608V486H616V526H658V506H678V464H638V456ZM658 504H676V486H658V504ZM676 484H656V504H636V524H618V486H638V466H676V484ZM638 506H656V524H638V506ZM636 466H618V484H636V466Z" fill="#335177"/>
</g>
<path d="M608 608V456H760" stroke="#335177" stroke-width="2"/>
<g clip-path="url(#clip9_2140_1747)">
<path fill-rule="evenodd" clip-rule="evenodd" d="M760 758V760H608V758H636V750H616V730H608V728H616V688H658V708H678V750H638V758H728V750H688V708H708V688H750V728H758V638H750V678H708V658H688V616H728V608H730V616H750V636H758V608H760V758ZM758 758V730H750V750H730V758H758ZM690 638V656H708V638H690ZM710 656H730V676H748V638H728V618H690V636H710V656ZM710 658V676H728V658H710ZM730 636H748V618H730V636ZM676 728V710H658V728H676ZM656 710H636V690H618V728H638V748H676V730H656V710ZM656 708V690H638V708H656ZM636 730H618V748H636V730ZM690 730V748H728V728H748V690H730V710H710V730H690ZM708 710H690V728H708V710ZM710 708H728V690H710V708ZM730 748V730H748V748H730ZM638 608H636V616H616V636H608V638H616V678H658V658H678V616H638V608ZM658 656H676V638H658V656ZM676 636H656V656H636V676H618V638H638V618H676V636ZM638 658H656V676H638V658ZM636 618H618V636H636V618Z" fill="#335177"/>
</g>
<path d="M608 760V608H760" stroke="#335177" stroke-width="2"/>
<g clip-path="url(#clip10_2140_1747)">
<path fill-rule="evenodd" clip-rule="evenodd" d="M456 150V152H304V150H332V142H312V122H304V120H312V80H354V100H374V142H334V150H424V142H384V100H404V80H446V120H454V30H446V70H404V50H384V8H424V0H426V8H446V28H454V0H456V150ZM454 150V122H446V142H426V150H454ZM386 30V48H404V30H386ZM406 48H426V68H444V30H424V10H386V28H406V48ZM406 50V68H424V50H406ZM426 28H444V10H426V28ZM372 120V102H354V120H372ZM352 102H332V82H314V120H334V140H372V122H352V102ZM352 100V82H334V100H352ZM332 122H314V140H332V122ZM386 122V140H424V120H444V82H426V102H406V122H386ZM404 102H386V120H404V102ZM406 100H424V82H406V100ZM426 140V122H444V140H426ZM334 0H332V8H312V28H304V30H312V70H354V50H374V8H334V0ZM354 48H372V30H354V48ZM372 28H352V48H332V68H314V30H334V10H372V28ZM334 50H352V68H334V50ZM332 10H314V28H332V10Z" fill="#335177"/>
</g>
<path d="M304 152V0H456" stroke="#335177" stroke-width="2"/>
<g clip-path="url(#clip11_2140_1747)">
<path fill-rule="evenodd" clip-rule="evenodd" d="M456 302V304H304V302H332V294H312V274H304V272H312V232H354V252H374V294H334V302H424V294H384V252H404V232H446V272H454V182H446V222H404V202H384V160H424V152H426V160H446V180H454V152H456V302ZM454 302V274H446V294H426V302H454ZM386 182V200H404V182H386ZM406 200H426V220H444V182H424V162H386V180H406V200ZM406 202V220H424V202H406ZM426 180H444V162H426V180ZM372 272V254H354V272H372ZM352 254H332V234H314V272H334V292H372V274H352V254ZM352 252V234H334V252H352ZM332 274H314V292H332V274ZM386 274V292H424V272H444V234H426V254H406V274H386ZM404 254H386V272H404V254ZM406 252H424V234H406V252ZM426 292V274H444V292H426ZM334 152H332V160H312V180H304V182H312V222H354V202H374V160H334V152ZM354 200H372V182H354V200ZM372 180H352V200H332V220H314V182H334V162H372V180ZM334 202H352V220H334V202ZM332 162H314V180H332V162Z" fill="#335177"/>
</g>
<path d="M304 304V152H456" stroke="#335177" stroke-width="2"/>
<g clip-path="url(#clip12_2140_1747)">
<path fill-rule="evenodd" clip-rule="evenodd" d="M456 454V456H304V454H332V446H312V426H304V424H312V384H354V404H374V446H334V454H424V446H384V404H404V384H446V424H454V334H446V374H404V354H384V312H424V304H426V312H446V332H454V304H456V454ZM454 454V426H446V446H426V454H454ZM386 334V352H404V334H386ZM406 352H426V372H444V334H424V314H386V332H406V352ZM406 354V372H424V354H406ZM426 332H444V314H426V332ZM372 424V406H354V424H372ZM352 406H332V386H314V424H334V444H372V426H352V406ZM352 404V386H334V404H352ZM332 426H314V444H332V426ZM386 426V444H424V424H444V386H426V406H406V426H386ZM404 406H386V424H404V406ZM406 404H424V386H406V404ZM426 444V426H444V444H426ZM334 304H332V312H312V332H304V334H312V374H354V354H374V312H334V304ZM354 352H372V334H354V352ZM372 332H352V352H332V372H314V334H334V314H372V332ZM334 354H352V372H334V354ZM332 314H314V332H332V314Z" fill="#335177"/>
</g>
<path d="M304 456V304H456" stroke="#335177" stroke-width="2"/>
<g clip-path="url(#clip13_2140_1747)">
<path fill-rule="evenodd" clip-rule="evenodd" d="M456 606V608H304V606H332V598H312V578H304V576H312V536H354V556H374V598H334V606H424V598H384V556H404V536H446V576H454V486H446V526H404V506H384V464H424V456H426V464H446V484H454V456H456V606ZM454 606V578H446V598H426V606H454ZM386 486V504H404V486H386ZM406 504H426V524H444V486H424V466H386V484H406V504ZM406 506V524H424V506H406ZM426 484H444V466H426V484ZM372 576V558H354V576H372ZM352 558H332V538H314V576H334V596H372V578H352V558ZM352 556V538H334V556H352ZM332 578H314V596H332V578ZM386 578V596H424V576H444V538H426V558H406V578H386ZM404 558H386V576H404V558ZM406 556H424V538H406V556ZM426 596V578H444V596H426ZM334 456H332V464H312V484H304V486H312V526H354V506H374V464H334V456ZM354 504H372V486H354V504ZM372 484H352V504H332V524H314V486H334V466H372V484ZM334 506H352V524H334V506ZM332 466H314V484H332V466Z" fill="#335177"/>
</g>
<path d="M304 608V456H456" stroke="#335177" stroke-width="2"/>
<g clip-path="url(#clip14_2140_1747)">
<path fill-rule="evenodd" clip-rule="evenodd" d="M456 758V760H304V758H332V750H312V730H304V728H312V688H354V708H374V750H334V758H424V750H384V708H404V688H446V728H454V638H446V678H404V658H384V616H424V608H426V616H446V636H454V608H456V758ZM454 758V730H446V750H426V758H454ZM386 638V656H404V638H386ZM406 656H426V676H444V638H424V618H386V636H406V656ZM406 658V676H424V658H406ZM426 636H444V618H426V636ZM372 728V710H354V728H372ZM352 710H332V690H314V728H334V748H372V730H352V710ZM352 708V690H334V708H352ZM332 730H314V748H332V730ZM386 730V748H424V728H444V690H426V710H406V730H386ZM404 710H386V728H404V710ZM406 708H424V690H406V708ZM426 748V730H444V748H426ZM334 608H332V616H312V636H304V638H312V678H354V658H374V616H334V608ZM354 656H372V638H354V656ZM372 636H352V656H332V676H314V638H334V618H372V636ZM334 658H352V676H334V658ZM332 618H314V636H332V618Z" fill="#335177"/>
</g>
<path d="M304 760V608H456" stroke="#335177" stroke-width="2"/>
<g clip-path="url(#clip15_2140_1747)">
<path fill-rule="evenodd" clip-rule="evenodd" d="M1064 150V152H912V150H940V142H920V122H912V120H920V80H962V100H982V142H942V150H1032V142H992V100H1012V80H1054V120H1062V30H1054V70H1012V50H992V8H1032V0H1034V8H1054V28H1062V0H1064V150ZM1062 150V122H1054V142H1034V150H1062ZM994 30V48H1012V30H994ZM1014 48H1034V68H1052V30H1032V10H994V28H1014V48ZM1014 50V68H1032V50H1014ZM1034 28H1052V10H1034V28ZM980 120V102H962V120H980ZM960 102H940V82H922V120H942V140H980V122H960V102ZM960 100V82H942V100H960ZM940 122H922V140H940V122ZM994 122V140H1032V120H1052V82H1034V102H1014V122H994ZM1012 102H994V120H1012V102ZM1014 100H1032V82H1014V100ZM1034 140V122H1052V140H1034ZM942 0H940V8H920V28H912V30H920V70H962V50H982V8H942V0ZM962 48H980V30H962V48ZM980 28H960V48H940V68H922V30H942V10H980V28ZM942 50H960V68H942V50ZM940 10H922V28H940V10Z" fill="#335177"/>
</g>
<path d="M912 152V0H1064" stroke="#335177" stroke-width="2"/>
<g clip-path="url(#clip16_2140_1747)">
<path fill-rule="evenodd" clip-rule="evenodd" d="M1064 302V304H912V302H940V294H920V274H912V272H920V232H962V252H982V294H942V302H1032V294H992V252H1012V232H1054V272H1062V182H1054V222H1012V202H992V160H1032V152H1034V160H1054V180H1062V152H1064V302ZM1062 302V274H1054V294H1034V302H1062ZM994 182V200H1012V182H994ZM1014 200H1034V220H1052V182H1032V162H994V180H1014V200ZM1014 202V220H1032V202H1014ZM1034 180H1052V162H1034V180ZM980 272V254H962V272H980ZM960 254H940V234H922V272H942V292H980V274H960V254ZM960 252V234H942V252H960ZM940 274H922V292H940V274ZM994 274V292H1032V272H1052V234H1034V254H1014V274H994ZM1012 254H994V272H1012V254ZM1014 252H1032V234H1014V252ZM1034 292V274H1052V292H1034ZM942 152H940V160H920V180H912V182H920V222H962V202H982V160H942V152ZM962 200H980V182H962V200ZM980 180H960V200H940V220H922V182H942V162H980V180ZM942 202H960V220H942V202ZM940 162H922V180H940V162Z" fill="#335177"/>
</g>
<path d="M912 304V152H1064" stroke="#335177" stroke-width="2"/>
<g clip-path="url(#clip17_2140_1747)">
<path fill-rule="evenodd" clip-rule="evenodd" d="M1064 454V456H912V454H940V446H920V426H912V424H920V384H962V404H982V446H942V454H1032V446H992V404H1012V384H1054V424H1062V334H1054V374H1012V354H992V312H1032V304H1034V312H1054V332H1062V304H1064V454ZM1062 454V426H1054V446H1034V454H1062ZM994 334V352H1012V334H994ZM1014 352H1034V372H1052V334H1032V314H994V332H1014V352ZM1014 354V372H1032V354H1014ZM1034 332H1052V314H1034V332ZM980 424V406H962V424H980ZM960 406H940V386H922V424H942V444H980V426H960V406ZM960 404V386H942V404H960ZM940 426H922V444H940V426ZM994 426V444H1032V424H1052V386H1034V406H1014V426H994ZM1012 406H994V424H1012V406ZM1014 404H1032V386H1014V404ZM1034 444V426H1052V444H1034ZM942 304H940V312H920V332H912V334H920V374H962V354H982V312H942V304ZM962 352H980V334H962V352ZM980 332H960V352H940V372H922V334H942V314H980V332ZM942 354H960V372H942V354ZM940 314H922V332H940V314Z" fill="#335177"/>
</g>
<path d="M912 456V304H1064" stroke="#335177" stroke-width="2"/>
<g clip-path="url(#clip18_2140_1747)">
<path fill-rule="evenodd" clip-rule="evenodd" d="M1064 606V608H912V606H940V598H920V578H912V576H920V536H962V556H982V598H942V606H1032V598H992V556H1012V536H1054V576H1062V486H1054V526H1012V506H992V464H1032V456H1034V464H1054V484H1062V456H1064V606ZM1062 606V578H1054V598H1034V606H1062ZM994 486V504H1012V486H994ZM1014 504H1034V524H1052V486H1032V466H994V484H1014V504ZM1014 506V524H1032V506H1014ZM1034 484H1052V466H1034V484ZM980 576V558H962V576H980ZM960 558H940V538H922V576H942V596H980V578H960V558ZM960 556V538H942V556H960ZM940 578H922V596H940V578ZM994 578V596H1032V576H1052V538H1034V558H1014V578H994ZM1012 558H994V576H1012V558ZM1014 556H1032V538H1014V556ZM1034 596V578H1052V596H1034ZM942 456H940V464H920V484H912V486H920V526H962V506H982V464H942V456ZM962 504H980V486H962V504ZM980 484H960V504H940V524H922V486H942V466H980V484ZM942 506H960V524H942V506ZM940 466H922V484H940V466Z" fill="#335177"/>
</g>
<path d="M912 608V456H1064" stroke="#335177" stroke-width="2"/>
<g clip-path="url(#clip19_2140_1747)">
<path fill-rule="evenodd" clip-rule="evenodd" d="M1064 758V760H912V758H940V750H920V730H912V728H920V688H962V708H982V750H942V758H1032V750H992V708H1012V688H1054V728H1062V638H1054V678H1012V658H992V616H1032V608H1034V616H1054V636H1062V608H1064V758ZM1062 758V730H1054V750H1034V758H1062ZM994 638V656H1012V638H994ZM1014 656H1034V676H1052V638H1032V618H994V636H1014V656ZM1014 658V676H1032V658H1014ZM1034 636H1052V618H1034V636ZM980 728V710H962V728H980ZM960 710H940V690H922V728H942V748H980V730H960V710ZM960 708V690H942V708H960ZM940 730H922V748H940V730ZM994 730V748H1032V728H1052V690H1034V710H1014V730H994ZM1012 710H994V728H1012V710ZM1014 708H1032V690H1014V708ZM1034 748V730H1052V748H1034ZM942 608H940V616H920V636H912V638H920V678H962V658H982V616H942V608ZM962 656H980V638H962V656ZM980 636H960V656H940V676H922V638H942V618H980V636ZM942 658H960V676H942V658ZM940 618H922V636H940V618Z" fill="#335177"/>
</g>
<path d="M912 760V608H1064" stroke="#335177" stroke-width="2"/>
<g clip-path="url(#clip20_2140_1747)">
<path fill-rule="evenodd" clip-rule="evenodd" d="M1368 150V152H1216V150H1244V142H1224V122H1216V120H1224V80H1266V100H1286V142H1246V150H1336V142H1296V100H1316V80H1358V120H1366V30H1358V70H1316V50H1296V8H1336V0H1338V8H1358V28H1366V0H1368V150ZM1366 150V122H1358V142H1338V150H1366ZM1298 30V48H1316V30H1298ZM1318 48H1338V68H1356V30H1336V10H1298V28H1318V48ZM1318 50V68H1336V50H1318ZM1338 28H1356V10H1338V28ZM1284 120V102H1266V120H1284ZM1264 102H1244V82H1226V120H1246V140H1284V122H1264V102ZM1264 100V82H1246V100H1264ZM1244 122H1226V140H1244V122ZM1298 122V140H1336V120H1356V82H1338V102H1318V122H1298ZM1316 102H1298V120H1316V102ZM1318 100H1336V82H1318V100ZM1338 140V122H1356V140H1338ZM1246 0H1244V8H1224V28H1216V30H1224V70H1266V50H1286V8H1246V0ZM1266 48H1284V30H1266V48ZM1284 28H1264V48H1244V68H1226V30H1246V10H1284V28ZM1246 50H1264V68H1246V50ZM1244 10H1226V28H1244V10Z" fill="#335177"/>
</g>
<path d="M1216 152V0H1368" stroke="#335177" stroke-width="2"/>
<g clip-path="url(#clip21_2140_1747)">
<path fill-rule="evenodd" clip-rule="evenodd" d="M1368 302V304H1216V302H1244V294H1224V274H1216V272H1224V232H1266V252H1286V294H1246V302H1336V294H1296V252H1316V232H1358V272H1366V182H1358V222H1316V202H1296V160H1336V152H1338V160H1358V180H1366V152H1368V302ZM1366 302V274H1358V294H1338V302H1366ZM1298 182V200H1316V182H1298ZM1318 200H1338V220H1356V182H1336V162H1298V180H1318V200ZM1318 202V220H1336V202H1318ZM1338 180H1356V162H1338V180ZM1284 272V254H1266V272H1284ZM1264 254H1244V234H1226V272H1246V292H1284V274H1264V254ZM1264 252V234H1246V252H1264ZM1244 274H1226V292H1244V274ZM1298 274V292H1336V272H1356V234H1338V254H1318V274H1298ZM1316 254H1298V272H1316V254ZM1318 252H1336V234H1318V252ZM1338 292V274H1356V292H1338ZM1246 152H1244V160H1224V180H1216V182H1224V222H1266V202H1286V160H1246V152ZM1266 200H1284V182H1266V200ZM1284 180H1264V200H1244V220H1226V182H1246V162H1284V180ZM1246 202H1264V220H1246V202ZM1244 162H1226V180H1244V162Z" fill="#335177"/>
</g>
<path d="M1216 304V152H1368" stroke="#335177" stroke-width="2"/>
<g clip-path="url(#clip22_2140_1747)">
<path fill-rule="evenodd" clip-rule="evenodd" d="M1368 454V456H1216V454H1244V446H1224V426H1216V424H1224V384H1266V404H1286V446H1246V454H1336V446H1296V404H1316V384H1358V424H1366V334H1358V374H1316V354H1296V312H1336V304H1338V312H1358V332H1366V304H1368V454ZM1366 454V426H1358V446H1338V454H1366ZM1298 334V352H1316V334H1298ZM1318 352H1338V372H1356V334H1336V314H1298V332H1318V352ZM1318 354V372H1336V354H1318ZM1338 332H1356V314H1338V332ZM1284 424V406H1266V424H1284ZM1264 406H1244V386H1226V424H1246V444H1284V426H1264V406ZM1264 404V386H1246V404H1264ZM1244 426H1226V444H1244V426ZM1298 426V444H1336V424H1356V386H1338V406H1318V426H1298ZM1316 406H1298V424H1316V406ZM1318 404H1336V386H1318V404ZM1338 444V426H1356V444H1338ZM1246 304H1244V312H1224V332H1216V334H1224V374H1266V354H1286V312H1246V304ZM1266 352H1284V334H1266V352ZM1284 332H1264V352H1244V372H1226V334H1246V314H1284V332ZM1246 354H1264V372H1246V354ZM1244 314H1226V332H1244V314Z" fill="#335177"/>
</g>
<path d="M1216 456V304H1368" stroke="#335177" stroke-width="2"/>
<g clip-path="url(#clip23_2140_1747)">
<path fill-rule="evenodd" clip-rule="evenodd" d="M1368 606V608H1216V606H1244V598H1224V578H1216V576H1224V536H1266V556H1286V598H1246V606H1336V598H1296V556H1316V536H1358V576H1366V486H1358V526H1316V506H1296V464H1336V456H1338V464H1358V484H1366V456H1368V606ZM1366 606V578H1358V598H1338V606H1366ZM1298 486V504H1316V486H1298ZM1318 504H1338V524H1356V486H1336V466H1298V484H1318V504ZM1318 506V524H1336V506H1318ZM1338 484H1356V466H1338V484ZM1284 576V558H1266V576H1284ZM1264 558H1244V538H1226V576H1246V596H1284V578H1264V558ZM1264 556V538H1246V556H1264ZM1244 578H1226V596H1244V578ZM1298 578V596H1336V576H1356V538H1338V558H1318V578H1298ZM1316 558H1298V576H1316V558ZM1318 556H1336V538H1318V556ZM1338 596V578H1356V596H1338ZM1246 456H1244V464H1224V484H1216V486H1224V526H1266V506H1286V464H1246V456ZM1266 504H1284V486H1266V504ZM1284 484H1264V504H1244V524H1226V486H1246V466H1284V484ZM1246 506H1264V524H1246V506ZM1244 466H1226V484H1244V466Z" fill="#335177"/>
</g>
<path d="M1216 608V456H1368" stroke="#335177" stroke-width="2"/>
<g clip-path="url(#clip24_2140_1747)">
<path fill-rule="evenodd" clip-rule="evenodd" d="M1368 758V760H1216V758H1244V750H1224V730H1216V728H1224V688H1266V708H1286V750H1246V758H1336V750H1296V708H1316V688H1358V728H1366V638H1358V678H1316V658H1296V616H1336V608H1338V616H1358V636H1366V608H1368V758ZM1366 758V730H1358V750H1338V758H1366ZM1298 638V656H1316V638H1298ZM1318 656H1338V676H1356V638H1336V618H1298V636H1318V656ZM1318 658V676H1336V658H1318ZM1338 636H1356V618H1338V636ZM1284 728V710H1266V728H1284ZM1264 710H1244V690H1226V728H1246V748H1284V730H1264V710ZM1264 708V690H1246V708H1264ZM1244 730H1226V748H1244V730ZM1298 730V748H1336V728H1356V690H1338V710H1318V730H1298ZM1316 710H1298V728H1316V710ZM1318 708H1336V690H1318V708ZM1338 748V730H1356V748H1338ZM1246 608H1244V616H1224V636H1216V638H1224V678H1266V658H1286V616H1246V608ZM1266 656H1284V638H1266V656ZM1284 636H1264V656H1244V676H1226V638H1246V618H1284V636ZM1246 658H1264V676H1246V658ZM1244 618H1226V636H1244V618Z" fill="#335177"/>
</g>
<path d="M1216 760V608H1368" stroke="#335177" stroke-width="2"/>
<g clip-path="url(#clip25_2140_1747)">
<path fill-rule="evenodd" clip-rule="evenodd" d="M304 150V152H152V150H180V142H160V122H152V120H160V80H202V100H222V142H182V150H272V142H232V100H252V80H294V120H302V30H294V70H252V50H232V8H272V0H274V8H294V28H302V0H304V150ZM302 150V122H294V142H274V150H302ZM234 30V48H252V30H234ZM254 48H274V68H292V30H272V10H234V28H254V48ZM254 50V68H272V50H254ZM274 28H292V10H274V28ZM220 120V102H202V120H220ZM200 102H180V82H162V120H182V140H220V122H200V102ZM200 100V82H182V100H200ZM180 122H162V140H180V122ZM234 122V140H272V120H292V82H274V102H254V122H234ZM252 102H234V120H252V102ZM254 100H272V82H254V100ZM274 140V122H292V140H274ZM182 0H180V8H160V28H152V30H160V70H202V50H222V8H182V0ZM202 48H220V30H202V48ZM220 28H200V48H180V68H162V30H182V10H220V28ZM182 50H200V68H182V50ZM180 10H162V28H180V10Z" fill="#335177"/>
</g>
<path d="M152 152V0H304" stroke="#335177" stroke-width="2"/>
<g clip-path="url(#clip26_2140_1747)">
<path fill-rule="evenodd" clip-rule="evenodd" d="M304 302V304H152V302H180V294H160V274H152V272H160V232H202V252H222V294H182V302H272V294H232V252H252V232H294V272H302V182H294V222H252V202H232V160H272V152H274V160H294V180H302V152H304V302ZM302 302V274H294V294H274V302H302ZM234 182V200H252V182H234ZM254 200H274V220H292V182H272V162H234V180H254V200ZM254 202V220H272V202H254ZM274 180H292V162H274V180ZM220 272V254H202V272H220ZM200 254H180V234H162V272H182V292H220V274H200V254ZM200 252V234H182V252H200ZM180 274H162V292H180V274ZM234 274V292H272V272H292V234H274V254H254V274H234ZM252 254H234V272H252V254ZM254 252H272V234H254V252ZM274 292V274H292V292H274ZM182 152H180V160H160V180H152V182H160V222H202V202H222V160H182V152ZM202 200H220V182H202V200ZM220 180H200V200H180V220H162V182H182V162H220V180ZM182 202H200V220H182V202ZM180 162H162V180H180V162Z" fill="#335177"/>
</g>
<path d="M152 304V152H304" stroke="#335177" stroke-width="2"/>
<g clip-path="url(#clip27_2140_1747)">
<path fill-rule="evenodd" clip-rule="evenodd" d="M304 454V456H152V454H180V446H160V426H152V424H160V384H202V404H222V446H182V454H272V446H232V404H252V384H294V424H302V334H294V374H252V354H232V312H272V304H274V312H294V332H302V304H304V454ZM302 454V426H294V446H274V454H302ZM234 334V352H252V334H234ZM254 352H274V372H292V334H272V314H234V332H254V352ZM254 354V372H272V354H254ZM274 332H292V314H274V332ZM220 424V406H202V424H220ZM200 406H180V386H162V424H182V444H220V426H200V406ZM200 404V386H182V404H200ZM180 426H162V444H180V426ZM234 426V444H272V424H292V386H274V406H254V426H234ZM252 406H234V424H252V406ZM254 404H272V386H254V404ZM274 444V426H292V444H274ZM182 304H180V312H160V332H152V334H160V374H202V354H222V312H182V304ZM202 352H220V334H202V352ZM220 332H200V352H180V372H162V334H182V314H220V332ZM182 354H200V372H182V354ZM180 314H162V332H180V314Z" fill="#335177"/>
</g>
<path d="M152 456V304H304" stroke="#335177" stroke-width="2"/>
<g clip-path="url(#clip28_2140_1747)">
<path fill-rule="evenodd" clip-rule="evenodd" d="M304 606V608H152V606H180V598H160V578H152V576H160V536H202V556H222V598H182V606H272V598H232V556H252V536H294V576H302V486H294V526H252V506H232V464H272V456H274V464H294V484H302V456H304V606ZM302 606V578H294V598H274V606H302ZM234 486V504H252V486H234ZM254 504H274V524H292V486H272V466H234V484H254V504ZM254 506V524H272V506H254ZM274 484H292V466H274V484ZM220 576V558H202V576H220ZM200 558H180V538H162V576H182V596H220V578H200V558ZM200 556V538H182V556H200ZM180 578H162V596H180V578ZM234 578V596H272V576H292V538H274V558H254V578H234ZM252 558H234V576H252V558ZM254 556H272V538H254V556ZM274 596V578H292V596H274ZM182 456H180V464H160V484H152V486H160V526H202V506H222V464H182V456ZM202 504H220V486H202V504ZM220 484H200V504H180V524H162V486H182V466H220V484ZM182 506H200V524H182V506ZM180 466H162V484H180V466Z" fill="#335177"/>
</g>
<path d="M152 608V456H304" stroke="#335177" stroke-width="2"/>
<g clip-path="url(#clip29_2140_1747)">
<path fill-rule="evenodd" clip-rule="evenodd" d="M304 758V760H152V758H180V750H160V730H152V728H160V688H202V708H222V750H182V758H272V750H232V708H252V688H294V728H302V638H294V678H252V658H232V616H272V608H274V616H294V636H302V608H304V758ZM302 758V730H294V750H274V758H302ZM234 638V656H252V638H234ZM254 656H274V676H292V638H272V618H234V636H254V656ZM254 658V676H272V658H254ZM274 636H292V618H274V636ZM220 728V710H202V728H220ZM200 710H180V690H162V728H182V748H220V730H200V710ZM200 708V690H182V708H200ZM180 730H162V748H180V730ZM234 730V748H272V728H292V690H274V710H254V730H234ZM252 710H234V728H252V710ZM254 708H272V690H254V708ZM274 748V730H292V748H274ZM182 608H180V616H160V636H152V638H160V678H202V658H222V616H182V608ZM202 656H220V638H202V656ZM220 636H200V656H180V676H162V638H182V618H220V636ZM182 658H200V676H182V658ZM180 618H162V636H180V618Z" fill="#335177"/>
</g>
<path d="M152 760V608H304" stroke="#335177" stroke-width="2"/>
<g clip-path="url(#clip30_2140_1747)">
<path fill-rule="evenodd" clip-rule="evenodd" d="M912 150V152H760V150H788V142H768V122H760V120H768V80H810V100H830V142H790V150H880V142H840V100H860V80H902V120H910V30H902V70H860V50H840V8H880V0H882V8H902V28H910V0H912V150ZM910 150V122H902V142H882V150H910ZM842 30V48H860V30H842ZM862 48H882V68H900V30H880V10H842V28H862V48ZM862 50V68H880V50H862ZM882 28H900V10H882V28ZM828 120V102H810V120H828ZM808 102H788V82H770V120H790V140H828V122H808V102ZM808 100V82H790V100H808ZM788 122H770V140H788V122ZM842 122V140H880V120H900V82H882V102H862V122H842ZM860 102H842V120H860V102ZM862 100H880V82H862V100ZM882 140V122H900V140H882ZM790 0H788V8H768V28H760V30H768V70H810V50H830V8H790V0ZM810 48H828V30H810V48ZM828 28H808V48H788V68H770V30H790V10H828V28ZM790 50H808V68H790V50ZM788 10H770V28H788V10Z" fill="#335177"/>
</g>
<path d="M760 152V0H912" stroke="#335177" stroke-width="2"/>
<g clip-path="url(#clip31_2140_1747)">
<path fill-rule="evenodd" clip-rule="evenodd" d="M912 302V304H760V302H788V294H768V274H760V272H768V232H810V252H830V294H790V302H880V294H840V252H860V232H902V272H910V182H902V222H860V202H840V160H880V152H882V160H902V180H910V152H912V302ZM910 302V274H902V294H882V302H910ZM842 182V200H860V182H842ZM862 200H882V220H900V182H880V162H842V180H862V200ZM862 202V220H880V202H862ZM882 180H900V162H882V180ZM828 272V254H810V272H828ZM808 254H788V234H770V272H790V292H828V274H808V254ZM808 252V234H790V252H808ZM788 274H770V292H788V274ZM842 274V292H880V272H900V234H882V254H862V274H842ZM860 254H842V272H860V254ZM862 252H880V234H862V252ZM882 292V274H900V292H882ZM790 152H788V160H768V180H760V182H768V222H810V202H830V160H790V152ZM810 200H828V182H810V200ZM828 180H808V200H788V220H770V182H790V162H828V180ZM790 202H808V220H790V202ZM788 162H770V180H788V162Z" fill="#335177"/>
</g>
<path d="M760 304V152H912" stroke="#335177" stroke-width="2"/>
<g clip-path="url(#clip32_2140_1747)">
<path fill-rule="evenodd" clip-rule="evenodd" d="M912 454V456H760V454H788V446H768V426H760V424H768V384H810V404H830V446H790V454H880V446H840V404H860V384H902V424H910V334H902V374H860V354H840V312H880V304H882V312H902V332H910V304H912V454ZM910 454V426H902V446H882V454H910ZM842 334V352H860V334H842ZM862 352H882V372H900V334H880V314H842V332H862V352ZM862 354V372H880V354H862ZM882 332H900V314H882V332ZM828 424V406H810V424H828ZM808 406H788V386H770V424H790V444H828V426H808V406ZM808 404V386H790V404H808ZM788 426H770V444H788V426ZM842 426V444H880V424H900V386H882V406H862V426H842ZM860 406H842V424H860V406ZM862 404H880V386H862V404ZM882 444V426H900V444H882ZM790 304H788V312H768V332H760V334H768V374H810V354H830V312H790V304ZM810 352H828V334H810V352ZM828 332H808V352H788V372H770V334H790V314H828V332ZM790 354H808V372H790V354ZM788 314H770V332H788V314Z" fill="#335177"/>
</g>
<path d="M760 456V304H912" stroke="#335177" stroke-width="2"/>
<g clip-path="url(#clip33_2140_1747)">
<path fill-rule="evenodd" clip-rule="evenodd" d="M912 606V608H760V606H788V598H768V578H760V576H768V536H810V556H830V598H790V606H880V598H840V556H860V536H902V576H910V486H902V526H860V506H840V464H880V456H882V464H902V484H910V456H912V606ZM910 606V578H902V598H882V606H910ZM842 486V504H860V486H842ZM862 504H882V524H900V486H880V466H842V484H862V504ZM862 506V524H880V506H862ZM882 484H900V466H882V484ZM828 576V558H810V576H828ZM808 558H788V538H770V576H790V596H828V578H808V558ZM808 556V538H790V556H808ZM788 578H770V596H788V578ZM842 578V596H880V576H900V538H882V558H862V578H842ZM860 558H842V576H860V558ZM862 556H880V538H862V556ZM882 596V578H900V596H882ZM790 456H788V464H768V484H760V486H768V526H810V506H830V464H790V456ZM810 504H828V486H810V504ZM828 484H808V504H788V524H770V486H790V466H828V484ZM790 506H808V524H790V506ZM788 466H770V484H788V466Z" fill="#335177"/>
</g>
<path d="M760 608V456H912" stroke="#335177" stroke-width="2"/>
<g clip-path="url(#clip34_2140_1747)">
<path fill-rule="evenodd" clip-rule="evenodd" d="M912 758V760H760V758H788V750H768V730H760V728H768V688H810V708H830V750H790V758H880V750H840V708H860V688H902V728H910V638H902V678H860V658H840V616H880V608H882V616H902V636H910V608H912V758ZM910 758V730H902V750H882V758H910ZM842 638V656H860V638H842ZM862 656H882V676H900V638H880V618H842V636H862V656ZM862 658V676H880V658H862ZM882 636H900V618H882V636ZM828 728V710H810V728H828ZM808 710H788V690H770V728H790V748H828V730H808V710ZM808 708V690H790V708H808ZM788 730H770V748H788V730ZM842 730V748H880V728H900V690H882V710H862V730H842ZM860 710H842V728H860V710ZM862 708H880V690H862V708ZM882 748V730H900V748H882ZM790 608H788V616H768V636H760V638H768V678H810V658H830V616H790V608ZM810 656H828V638H810V656ZM828 636H808V656H788V676H770V638H790V618H828V636ZM790 658H808V676H790V658ZM788 618H770V636H788V618Z" fill="#335177"/>
</g>
<path d="M760 760V608H912" stroke="#335177" stroke-width="2"/>
<g clip-path="url(#clip35_2140_1747)">
<path fill-rule="evenodd" clip-rule="evenodd" d="M608 150V152H456V150H484V142H464V122H456V120H464V80H506V100H526V142H486V150H576V142H536V100H556V80H598V120H606V30H598V70H556V50H536V8H576V0H578V8H598V28H606V0H608V150ZM606 150V122H598V142H578V150H606ZM538 30V48H556V30H538ZM558 48H578V68H596V30H576V10H538V28H558V48ZM558 50V68H576V50H558ZM578 28H596V10H578V28ZM524 120V102H506V120H524ZM504 102H484V82H466V120H486V140H524V122H504V102ZM504 100V82H486V100H504ZM484 122H466V140H484V122ZM538 122V140H576V120H596V82H578V102H558V122H538ZM556 102H538V120H556V102ZM558 100H576V82H558V100ZM578 140V122H596V140H578ZM486 0H484V8H464V28H456V30H464V70H506V50H526V8H486V0ZM506 48H524V30H506V48ZM524 28H504V48H484V68H466V30H486V10H524V28ZM486 50H504V68H486V50ZM484 10H466V28H484V10Z" fill="#335177"/>
</g>
<path d="M456 152V0H608" stroke="#335177" stroke-width="2"/>
<g clip-path="url(#clip36_2140_1747)">
<path fill-rule="evenodd" clip-rule="evenodd" d="M608 302V304H456V302H484V294H464V274H456V272H464V232H506V252H526V294H486V302H576V294H536V252H556V232H598V272H606V182H598V222H556V202H536V160H576V152H578V160H598V180H606V152H608V302ZM606 302V274H598V294H578V302H606ZM538 182V200H556V182H538ZM558 200H578V220H596V182H576V162H538V180H558V200ZM558 202V220H576V202H558ZM578 180H596V162H578V180ZM524 272V254H506V272H524ZM504 254H484V234H466V272H486V292H524V274H504V254ZM504 252V234H486V252H504ZM484 274H466V292H484V274ZM538 274V292H576V272H596V234H578V254H558V274H538ZM556 254H538V272H556V254ZM558 252H576V234H558V252ZM578 292V274H596V292H578ZM486 152H484V160H464V180H456V182H464V222H506V202H526V160H486V152ZM506 200H524V182H506V200ZM524 180H504V200H484V220H466V182H486V162H524V180ZM486 202H504V220H486V202ZM484 162H466V180H484V162Z" fill="#335177"/>
</g>
<path d="M456 304V152H608" stroke="#335177" stroke-width="2"/>
<g clip-path="url(#clip37_2140_1747)">
<path fill-rule="evenodd" clip-rule="evenodd" d="M608 454V456H456V454H484V446H464V426H456V424H464V384H506V404H526V446H486V454H576V446H536V404H556V384H598V424H606V334H598V374H556V354H536V312H576V304H578V312H598V332H606V304H608V454ZM606 454V426H598V446H578V454H606ZM538 334V352H556V334H538ZM558 352H578V372H596V334H576V314H538V332H558V352ZM558 354V372H576V354H558ZM578 332H596V314H578V332ZM524 424V406H506V424H524ZM504 406H484V386H466V424H486V444H524V426H504V406ZM504 404V386H486V404H504ZM484 426H466V444H484V426ZM538 426V444H576V424H596V386H578V406H558V426H538ZM556 406H538V424H556V406ZM558 404H576V386H558V404ZM578 444V426H596V444H578ZM486 304H484V312H464V332H456V334H464V374H506V354H526V312H486V304ZM506 352H524V334H506V352ZM524 332H504V352H484V372H466V334H486V314H524V332ZM486 354H504V372H486V354ZM484 314H466V332H484V314Z" fill="#335177"/>
</g>
<path d="M456 456V304H608" stroke="#335177" stroke-width="2"/>
<g clip-path="url(#clip38_2140_1747)">
<path fill-rule="evenodd" clip-rule="evenodd" d="M608 606V608H456V606H484V598H464V578H456V576H464V536H506V556H526V598H486V606H576V598H536V556H556V536H598V576H606V486H598V526H556V506H536V464H576V456H578V464H598V484H606V456H608V606ZM606 606V578H598V598H578V606H606ZM538 486V504H556V486H538ZM558 504H578V524H596V486H576V466H538V484H558V504ZM558 506V524H576V506H558ZM578 484H596V466H578V484ZM524 576V558H506V576H524ZM504 558H484V538H466V576H486V596H524V578H504V558ZM504 556V538H486V556H504ZM484 578H466V596H484V578ZM538 578V596H576V576H596V538H578V558H558V578H538ZM556 558H538V576H556V558ZM558 556H576V538H558V556ZM578 596V578H596V596H578ZM486 456H484V464H464V484H456V486H464V526H506V506H526V464H486V456ZM506 504H524V486H506V504ZM524 484H504V504H484V524H466V486H486V466H524V484ZM486 506H504V524H486V506ZM484 466H466V484H484V466Z" fill="#335177"/>
</g>
<path d="M456 608V456H608" stroke="#335177" stroke-width="2"/>
<g clip-path="url(#clip39_2140_1747)">
<path fill-rule="evenodd" clip-rule="evenodd" d="M608 758V760H456V758H484V750H464V730H456V728H464V688H506V708H526V750H486V758H576V750H536V708H556V688H598V728H606V638H598V678H556V658H536V616H576V608H578V616H598V636H606V608H608V758ZM606 758V730H598V750H578V758H606ZM538 638V656H556V638H538ZM558 656H578V676H596V638H576V618H538V636H558V656ZM558 658V676H576V658H558ZM578 636H596V618H578V636ZM524 728V710H506V728H524ZM504 710H484V690H466V728H486V748H524V730H504V710ZM504 708V690H486V708H504ZM484 730H466V748H484V730ZM538 730V748H576V728H596V690H578V710H558V730H538ZM556 710H538V728H556V710ZM558 708H576V690H558V708ZM578 748V730H596V748H578ZM486 608H484V616H464V636H456V638H464V678H506V658H526V616H486V608ZM506 656H524V638H506V656ZM524 636H504V656H484V676H466V638H486V618H524V636ZM486 658H504V676H486V658ZM484 618H466V636H484V618Z" fill="#335177"/>
</g>
<path d="M456 760V608H608" stroke="#335177" stroke-width="2"/>
<g clip-path="url(#clip40_2140_1747)">
<path fill-rule="evenodd" clip-rule="evenodd" d="M1216 150V152H1064V150H1092V142H1072V122H1064V120H1072V80H1114V100H1134V142H1094V150H1184V142H1144V100H1164V80H1206V120H1214V30H1206V70H1164V50H1144V8H1184V0H1186V8H1206V28H1214V0H1216V150ZM1214 150V122H1206V142H1186V150H1214ZM1146 30V48H1164V30H1146ZM1166 48H1186V68H1204V30H1184V10H1146V28H1166V48ZM1166 50V68H1184V50H1166ZM1186 28H1204V10H1186V28ZM1132 120V102H1114V120H1132ZM1112 102H1092V82H1074V120H1094V140H1132V122H1112V102ZM1112 100V82H1094V100H1112ZM1092 122H1074V140H1092V122ZM1146 122V140H1184V120H1204V82H1186V102H1166V122H1146ZM1164 102H1146V120H1164V102ZM1166 100H1184V82H1166V100ZM1186 140V122H1204V140H1186ZM1094 0H1092V8H1072V28H1064V30H1072V70H1114V50H1134V8H1094V0ZM1114 48H1132V30H1114V48ZM1132 28H1112V48H1092V68H1074V30H1094V10H1132V28ZM1094 50H1112V68H1094V50ZM1092 10H1074V28H1092V10Z" fill="#335177"/>
</g>
<path d="M1064 152V0H1216" stroke="#335177" stroke-width="2"/>
<g clip-path="url(#clip41_2140_1747)">
<path fill-rule="evenodd" clip-rule="evenodd" d="M1216 302V304H1064V302H1092V294H1072V274H1064V272H1072V232H1114V252H1134V294H1094V302H1184V294H1144V252H1164V232H1206V272H1214V182H1206V222H1164V202H1144V160H1184V152H1186V160H1206V180H1214V152H1216V302ZM1214 302V274H1206V294H1186V302H1214ZM1146 182V200H1164V182H1146ZM1166 200H1186V220H1204V182H1184V162H1146V180H1166V200ZM1166 202V220H1184V202H1166ZM1186 180H1204V162H1186V180ZM1132 272V254H1114V272H1132ZM1112 254H1092V234H1074V272H1094V292H1132V274H1112V254ZM1112 252V234H1094V252H1112ZM1092 274H1074V292H1092V274ZM1146 274V292H1184V272H1204V234H1186V254H1166V274H1146ZM1164 254H1146V272H1164V254ZM1166 252H1184V234H1166V252ZM1186 292V274H1204V292H1186ZM1094 152H1092V160H1072V180H1064V182H1072V222H1114V202H1134V160H1094V152ZM1114 200H1132V182H1114V200ZM1132 180H1112V200H1092V220H1074V182H1094V162H1132V180ZM1094 202H1112V220H1094V202ZM1092 162H1074V180H1092V162Z" fill="#335177"/>
</g>
<path d="M1064 304V152H1216" stroke="#335177" stroke-width="2"/>
<g clip-path="url(#clip42_2140_1747)">
<path fill-rule="evenodd" clip-rule="evenodd" d="M1216 454V456H1064V454H1092V446H1072V426H1064V424H1072V384H1114V404H1134V446H1094V454H1184V446H1144V404H1164V384H1206V424H1214V334H1206V374H1164V354H1144V312H1184V304H1186V312H1206V332H1214V304H1216V454ZM1214 454V426H1206V446H1186V454H1214ZM1146 334V352H1164V334H1146ZM1166 352H1186V372H1204V334H1184V314H1146V332H1166V352ZM1166 354V372H1184V354H1166ZM1186 332H1204V314H1186V332ZM1132 424V406H1114V424H1132ZM1112 406H1092V386H1074V424H1094V444H1132V426H1112V406ZM1112 404V386H1094V404H1112ZM1092 426H1074V444H1092V426ZM1146 426V444H1184V424H1204V386H1186V406H1166V426H1146ZM1164 406H1146V424H1164V406ZM1166 404H1184V386H1166V404ZM1186 444V426H1204V444H1186ZM1094 304H1092V312H1072V332H1064V334H1072V374H1114V354H1134V312H1094V304ZM1114 352H1132V334H1114V352ZM1132 332H1112V352H1092V372H1074V334H1094V314H1132V332ZM1094 354H1112V372H1094V354ZM1092 314H1074V332H1092V314Z" fill="#335177"/>
</g>
<path d="M1064 456V304H1216" stroke="#335177" stroke-width="2"/>
<g clip-path="url(#clip43_2140_1747)">
<path fill-rule="evenodd" clip-rule="evenodd" d="M1216 606V608H1064V606H1092V598H1072V578H1064V576H1072V536H1114V556H1134V598H1094V606H1184V598H1144V556H1164V536H1206V576H1214V486H1206V526H1164V506H1144V464H1184V456H1186V464H1206V484H1214V456H1216V606ZM1214 606V578H1206V598H1186V606H1214ZM1146 486V504H1164V486H1146ZM1166 504H1186V524H1204V486H1184V466H1146V484H1166V504ZM1166 506V524H1184V506H1166ZM1186 484H1204V466H1186V484ZM1132 576V558H1114V576H1132ZM1112 558H1092V538H1074V576H1094V596H1132V578H1112V558ZM1112 556V538H1094V556H1112ZM1092 578H1074V596H1092V578ZM1146 578V596H1184V576H1204V538H1186V558H1166V578H1146ZM1164 558H1146V576H1164V558ZM1166 556H1184V538H1166V556ZM1186 596V578H1204V596H1186ZM1094 456H1092V464H1072V484H1064V486H1072V526H1114V506H1134V464H1094V456ZM1114 504H1132V486H1114V504ZM1132 484H1112V504H1092V524H1074V486H1094V466H1132V484ZM1094 506H1112V524H1094V506ZM1092 466H1074V484H1092V466Z" fill="#335177"/>
</g>
<path d="M1064 608V456H1216" stroke="#335177" stroke-width="2"/>
<g clip-path="url(#clip44_2140_1747)">
<path fill-rule="evenodd" clip-rule="evenodd" d="M1216 758V760H1064V758H1092V750H1072V730H1064V728H1072V688H1114V708H1134V750H1094V758H1184V750H1144V708H1164V688H1206V728H1214V638H1206V678H1164V658H1144V616H1184V608H1186V616H1206V636H1214V608H1216V758ZM1214 758V730H1206V750H1186V758H1214ZM1146 638V656H1164V638H1146ZM1166 656H1186V676H1204V638H1184V618H1146V636H1166V656ZM1166 658V676H1184V658H1166ZM1186 636H1204V618H1186V636ZM1132 728V710H1114V728H1132ZM1112 710H1092V690H1074V728H1094V748H1132V730H1112V710ZM1112 708V690H1094V708H1112ZM1092 730H1074V748H1092V730ZM1146 730V748H1184V728H1204V690H1186V710H1166V730H1146ZM1164 710H1146V728H1164V710ZM1166 708H1184V690H1166V708ZM1186 748V730H1204V748H1186ZM1094 608H1092V616H1072V636H1064V638H1072V678H1114V658H1134V616H1094V608ZM1114 656H1132V638H1114V656ZM1132 636H1112V656H1092V676H1074V638H1094V618H1132V636ZM1094 658H1112V676H1094V658ZM1092 618H1074V636H1092V618Z" fill="#335177"/>
</g>
<path d="M1064 760V608H1216" stroke="#335177" stroke-width="2"/>
<g clip-path="url(#clip45_2140_1747)">
<path fill-rule="evenodd" clip-rule="evenodd" d="M1520 150V152H1368V150H1396V142H1376V122H1368V120H1376V80H1418V100H1438V142H1398V150H1488V142H1448V100H1468V80H1510V120H1518V30H1510V70H1468V50H1448V8H1488V0H1490V8H1510V28H1518V0H1520V150ZM1518 150V122H1510V142H1490V150H1518ZM1450 30V48H1468V30H1450ZM1470 48H1490V68H1508V30H1488V10H1450V28H1470V48ZM1470 50V68H1488V50H1470ZM1490 28H1508V10H1490V28ZM1436 120V102H1418V120H1436ZM1416 102H1396V82H1378V120H1398V140H1436V122H1416V102ZM1416 100V82H1398V100H1416ZM1396 122H1378V140H1396V122ZM1450 122V140H1488V120H1508V82H1490V102H1470V122H1450ZM1468 102H1450V120H1468V102ZM1470 100H1488V82H1470V100ZM1490 140V122H1508V140H1490ZM1398 0H1396V8H1376V28H1368V30H1376V70H1418V50H1438V8H1398V0ZM1418 48H1436V30H1418V48ZM1436 28H1416V48H1396V68H1378V30H1398V10H1436V28ZM1398 50H1416V68H1398V50ZM1396 10H1378V28H1396V10Z" fill="#335177"/>
</g>
<path d="M1368 152V0H1520" stroke="#335177" stroke-width="2"/>
<g clip-path="url(#clip46_2140_1747)">
<path fill-rule="evenodd" clip-rule="evenodd" d="M1520 302V304H1368V302H1396V294H1376V274H1368V272H1376V232H1418V252H1438V294H1398V302H1488V294H1448V252H1468V232H1510V272H1518V182H1510V222H1468V202H1448V160H1488V152H1490V160H1510V180H1518V152H1520V302ZM1518 302V274H1510V294H1490V302H1518ZM1450 182V200H1468V182H1450ZM1470 200H1490V220H1508V182H1488V162H1450V180H1470V200ZM1470 202V220H1488V202H1470ZM1490 180H1508V162H1490V180ZM1436 272V254H1418V272H1436ZM1416 254H1396V234H1378V272H1398V292H1436V274H1416V254ZM1416 252V234H1398V252H1416ZM1396 274H1378V292H1396V274ZM1450 274V292H1488V272H1508V234H1490V254H1470V274H1450ZM1468 254H1450V272H1468V254ZM1470 252H1488V234H1470V252ZM1490 292V274H1508V292H1490ZM1398 152H1396V160H1376V180H1368V182H1376V222H1418V202H1438V160H1398V152ZM1418 200H1436V182H1418V200ZM1436 180H1416V200H1396V220H1378V182H1398V162H1436V180ZM1398 202H1416V220H1398V202ZM1396 162H1378V180H1396V162Z" fill="#335177"/>
</g>
<path d="M1368 304V152H1520" stroke="#335177" stroke-width="2"/>
<g clip-path="url(#clip47_2140_1747)">
<path fill-rule="evenodd" clip-rule="evenodd" d="M1520 454V456H1368V454H1396V446H1376V426H1368V424H1376V384H1418V404H1438V446H1398V454H1488V446H1448V404H1468V384H1510V424H1518V334H1510V374H1468V354H1448V312H1488V304H1490V312H1510V332H1518V304H1520V454ZM1518 454V426H1510V446H1490V454H1518ZM1450 334V352H1468V334H1450ZM1470 352H1490V372H1508V334H1488V314H1450V332H1470V352ZM1470 354V372H1488V354H1470ZM1490 332H1508V314H1490V332ZM1436 424V406H1418V424H1436ZM1416 406H1396V386H1378V424H1398V444H1436V426H1416V406ZM1416 404V386H1398V404H1416ZM1396 426H1378V444H1396V426ZM1450 426V444H1488V424H1508V386H1490V406H1470V426H1450ZM1468 406H1450V424H1468V406ZM1470 404H1488V386H1470V404ZM1490 444V426H1508V444H1490ZM1398 304H1396V312H1376V332H1368V334H1376V374H1418V354H1438V312H1398V304ZM1418 352H1436V334H1418V352ZM1436 332H1416V352H1396V372H1378V334H1398V314H1436V332ZM1398 354H1416V372H1398V354ZM1396 314H1378V332H1396V314Z" fill="#335177"/>
</g>
<path d="M1368 456V304H1520" stroke="#335177" stroke-width="2"/>
<g clip-path="url(#clip48_2140_1747)">
<path fill-rule="evenodd" clip-rule="evenodd" d="M1520 606V608H1368V606H1396V598H1376V578H1368V576H1376V536H1418V556H1438V598H1398V606H1488V598H1448V556H1468V536H1510V576H1518V486H1510V526H1468V506H1448V464H1488V456H1490V464H1510V484H1518V456H1520V606ZM1518 606V578H1510V598H1490V606H1518ZM1450 486V504H1468V486H1450ZM1470 504H1490V524H1508V486H1488V466H1450V484H1470V504ZM1470 506V524H1488V506H1470ZM1490 484H1508V466H1490V484ZM1436 576V558H1418V576H1436ZM1416 558H1396V538H1378V576H1398V596H1436V578H1416V558ZM1416 556V538H1398V556H1416ZM1396 578H1378V596H1396V578ZM1450 578V596H1488V576H1508V538H1490V558H1470V578H1450ZM1468 558H1450V576H1468V558ZM1470 556H1488V538H1470V556ZM1490 596V578H1508V596H1490ZM1398 456H1396V464H1376V484H1368V486H1376V526H1418V506H1438V464H1398V456ZM1418 504H1436V486H1418V504ZM1436 484H1416V504H1396V524H1378V486H1398V466H1436V484ZM1398 506H1416V524H1398V506ZM1396 466H1378V484H1396V466Z" fill="#335177"/>
</g>
<path d="M1368 608V456H1520" stroke="#335177" stroke-width="2"/>
<defs>
<clipPath id="clip0_2140_1747">
<rect width="152" height="152" fill="white"/>
</clipPath>
<clipPath id="clip1_2140_1747">
<rect width="152" height="152" fill="white" transform="translate(0 152)"/>
</clipPath>
<clipPath id="clip2_2140_1747">
<rect width="152" height="152" fill="white" transform="translate(0 304)"/>
</clipPath>
<clipPath id="clip3_2140_1747">
<rect width="152" height="152" fill="white" transform="translate(0 456)"/>
</clipPath>
<clipPath id="clip4_2140_1747">
<rect width="152" height="152" fill="white" transform="translate(0 608)"/>
</clipPath>
<clipPath id="clip5_2140_1747">
<rect width="152" height="152" fill="white" transform="translate(608)"/>
</clipPath>
<clipPath id="clip6_2140_1747">
<rect width="152" height="152" fill="white" transform="translate(608 152)"/>
</clipPath>
<clipPath id="clip7_2140_1747">
<rect width="152" height="152" fill="white" transform="translate(608 304)"/>
</clipPath>
<clipPath id="clip8_2140_1747">
<rect width="152" height="152" fill="white" transform="translate(608 456)"/>
</clipPath>
<clipPath id="clip9_2140_1747">
<rect width="152" height="152" fill="white" transform="translate(608 608)"/>
</clipPath>
<clipPath id="clip10_2140_1747">
<rect width="152" height="152" fill="white" transform="translate(304)"/>
</clipPath>
<clipPath id="clip11_2140_1747">
<rect width="152" height="152" fill="white" transform="translate(304 152)"/>
</clipPath>
<clipPath id="clip12_2140_1747">
<rect width="152" height="152" fill="white" transform="translate(304 304)"/>
</clipPath>
<clipPath id="clip13_2140_1747">
<rect width="152" height="152" fill="white" transform="translate(304 456)"/>
</clipPath>
<clipPath id="clip14_2140_1747">
<rect width="152" height="152" fill="white" transform="translate(304 608)"/>
</clipPath>
<clipPath id="clip15_2140_1747">
<rect width="152" height="152" fill="white" transform="translate(912)"/>
</clipPath>
<clipPath id="clip16_2140_1747">
<rect width="152" height="152" fill="white" transform="translate(912 152)"/>
</clipPath>
<clipPath id="clip17_2140_1747">
<rect width="152" height="152" fill="white" transform="translate(912 304)"/>
</clipPath>
<clipPath id="clip18_2140_1747">
<rect width="152" height="152" fill="white" transform="translate(912 456)"/>
</clipPath>
<clipPath id="clip19_2140_1747">
<rect width="152" height="152" fill="white" transform="translate(912 608)"/>
</clipPath>
<clipPath id="clip20_2140_1747">
<rect width="152" height="152" fill="white" transform="translate(1216)"/>
</clipPath>
<clipPath id="clip21_2140_1747">
<rect width="152" height="152" fill="white" transform="translate(1216 152)"/>
</clipPath>
<clipPath id="clip22_2140_1747">
<rect width="152" height="152" fill="white" transform="translate(1216 304)"/>
</clipPath>
<clipPath id="clip23_2140_1747">
<rect width="152" height="152" fill="white" transform="translate(1216 456)"/>
</clipPath>
<clipPath id="clip24_2140_1747">
<rect width="152" height="152" fill="white" transform="translate(1216 608)"/>
</clipPath>
<clipPath id="clip25_2140_1747">
<rect width="152" height="152" fill="white" transform="translate(152)"/>
</clipPath>
<clipPath id="clip26_2140_1747">
<rect width="152" height="152" fill="white" transform="translate(152 152)"/>
</clipPath>
<clipPath id="clip27_2140_1747">
<rect width="152" height="152" fill="white" transform="translate(152 304)"/>
</clipPath>
<clipPath id="clip28_2140_1747">
<rect width="152" height="152" fill="white" transform="translate(152 456)"/>
</clipPath>
<clipPath id="clip29_2140_1747">
<rect width="152" height="152" fill="white" transform="translate(152 608)"/>
</clipPath>
<clipPath id="clip30_2140_1747">
<rect width="152" height="152" fill="white" transform="translate(760)"/>
</clipPath>
<clipPath id="clip31_2140_1747">
<rect width="152" height="152" fill="white" transform="translate(760 152)"/>
</clipPath>
<clipPath id="clip32_2140_1747">
<rect width="152" height="152" fill="white" transform="translate(760 304)"/>
</clipPath>
<clipPath id="clip33_2140_1747">
<rect width="152" height="152" fill="white" transform="translate(760 456)"/>
</clipPath>
<clipPath id="clip34_2140_1747">
<rect width="152" height="152" fill="white" transform="translate(760 608)"/>
</clipPath>
<clipPath id="clip35_2140_1747">
<rect width="152" height="152" fill="white" transform="translate(456)"/>
</clipPath>
<clipPath id="clip36_2140_1747">
<rect width="152" height="152" fill="white" transform="translate(456 152)"/>
</clipPath>
<clipPath id="clip37_2140_1747">
<rect width="152" height="152" fill="white" transform="translate(456 304)"/>
</clipPath>
<clipPath id="clip38_2140_1747">
<rect width="152" height="152" fill="white" transform="translate(456 456)"/>
</clipPath>
<clipPath id="clip39_2140_1747">
<rect width="152" height="152" fill="white" transform="translate(456 608)"/>
</clipPath>
<clipPath id="clip40_2140_1747">
<rect width="152" height="152" fill="white" transform="translate(1064)"/>
</clipPath>
<clipPath id="clip41_2140_1747">
<rect width="152" height="152" fill="white" transform="translate(1064 152)"/>
</clipPath>
<clipPath id="clip42_2140_1747">
<rect width="152" height="152" fill="white" transform="translate(1064 304)"/>
</clipPath>
<clipPath id="clip43_2140_1747">
<rect width="152" height="152" fill="white" transform="translate(1064 456)"/>
</clipPath>
<clipPath id="clip44_2140_1747">
<rect width="152" height="152" fill="white" transform="translate(1064 608)"/>
</clipPath>
<clipPath id="clip45_2140_1747">
<rect width="152" height="152" fill="white" transform="translate(1368)"/>
</clipPath>
<clipPath id="clip46_2140_1747">
<rect width="152" height="152" fill="white" transform="translate(1368 152)"/>
</clipPath>
<clipPath id="clip47_2140_1747">
<rect width="152" height="152" fill="white" transform="translate(1368 304)"/>
</clipPath>
<clipPath id="clip48_2140_1747">
<rect width="152" height="152" fill="white" transform="translate(1368 456)"/>
</clipPath>
</defs>
</svg>
