<svg width="603" height="588" viewBox="0 0 603 588" fill="none" xmlns="http://www.w3.org/2000/svg">
<g clip-path="url(#clip0_2169_611)">
<path fill-rule="evenodd" clip-rule="evenodd" d="M235.167 42.7918V37.0835H232.333V42.7918H226.667V45.646H232.333V51.3543H235.167V45.646H240.833V42.7918H235.167ZM235.167 -0.0206709V-5.729H232.333V-0.0206709H226.667V2.8335H232.333V8.54183H235.167V2.8335H240.833V-0.0206709H235.167ZM192.667 42.7918V37.0835H189.833V42.7918H184.167V45.646H189.833V51.3543H192.667V45.646H198.333V42.7918H192.667ZM192.667 -0.0206709V-5.729H189.833V-0.0206709H184.167V2.8335H189.833V8.54183H192.667V2.8335H198.333V-0.0206709H192.667Z" fill="#193C66"/>
<path fill-rule="evenodd" clip-rule="evenodd" d="M229 97V93H227V97H223V99H227V103H229V99H233V97H229ZM229 67V63H227V67H223V69H227V73H229V69H233V67H229ZM199 97V93H197V97H193V99H197V103H199V99H203V97H199ZM199 67V63H197V67H193V69H197V73H199V69H203V67H199Z" fill="#193C66"/>
</g>
<g clip-path="url(#clip1_2169_611)">
<path fill-rule="evenodd" clip-rule="evenodd" d="M65.1665 42.7918V37.0835H62.3332V42.7918H56.6665V45.646H62.3332V51.3543H65.1665V45.646H70.8332V42.7918H65.1665ZM65.1665 -0.0206709V-5.729H62.3332V-0.0206709H56.6665V2.8335H62.3332V8.54183H65.1665V2.8335H70.8332V-0.0206709H65.1665ZM22.6665 42.7918V37.0835H19.8332V42.7918H14.1665V45.646H19.8332V51.3543H22.6665V45.646H28.3332V42.7918H22.6665ZM22.6665 -0.0206709V-5.729H19.8332V-0.0206709H14.1665V2.8335H19.8332V8.54183H22.6665V2.8335H28.3332V-0.0206709H22.6665Z" fill="#193C66"/>
<path fill-rule="evenodd" clip-rule="evenodd" d="M59 97V93H57V97H53V99H57V103H59V99H63V97H59ZM59 67V63H57V67H53V69H57V73H59V69H63V67H59ZM29 97V93H27V97H23V99H27V103H29V99H33V97H29ZM29 67V63H27V67H23V69H27V73H29V69H33V67H29Z" fill="#193C66"/>
</g>
<g clip-path="url(#clip2_2169_611)">
<path fill-rule="evenodd" clip-rule="evenodd" d="M235.167 385.292V379.583H232.333V385.292H226.667V388.146H232.333V393.854H235.167V388.146H240.833V385.292H235.167ZM235.167 342.479V336.771H232.333V342.479H226.667V345.333H232.333V351.042H235.167V345.333H240.833V342.479H235.167ZM192.667 385.292V379.583H189.833V385.292H184.167V388.146H189.833V393.854H192.667V388.146H198.333V385.292H192.667ZM192.667 342.479V336.771H189.833V342.479H184.167V345.333H189.833V351.042H192.667V345.333H198.333V342.479H192.667Z" fill="#193C66"/>
<path fill-rule="evenodd" clip-rule="evenodd" d="M229 439.5V435.5H227V439.5H223V441.5H227V445.5H229V441.5H233V439.5H229ZM229 409.5V405.5H227V409.5H223V411.5H227V415.5H229V411.5H233V409.5H229ZM199 439.5V435.5H197V439.5H193V441.5H197V445.5H199V441.5H203V439.5H199ZM199 409.5V405.5H197V409.5H193V411.5H197V415.5H199V411.5H203V409.5H199Z" fill="#193C66"/>
</g>
<g clip-path="url(#clip3_2169_611)">
<path fill-rule="evenodd" clip-rule="evenodd" d="M65.1665 385.292V379.583H62.3332V385.292H56.6665V388.146H62.3332V393.854H65.1665V388.146H70.8332V385.292H65.1665ZM65.1665 342.479V336.771H62.3332V342.479H56.6665V345.333H62.3332V351.042H65.1665V345.333H70.8332V342.479H65.1665ZM22.6665 385.292V379.583H19.8332V385.292H14.1665V388.146H19.8332V393.854H22.6665V388.146H28.3332V385.292H22.6665ZM22.6665 342.479V336.771H19.8332V342.479H14.1665V345.333H19.8332V351.042H22.6665V345.333H28.3332V342.479H22.6665Z" fill="#193C66"/>
<path fill-rule="evenodd" clip-rule="evenodd" d="M59 439.5V435.5H57V439.5H53V441.5H57V445.5H59V441.5H63V439.5H59ZM59 409.5V405.5H57V409.5H53V411.5H57V415.5H59V411.5H63V409.5H59ZM29 439.5V435.5H27V439.5H23V441.5H27V445.5H29V441.5H33V439.5H29ZM29 409.5V405.5H27V409.5H23V411.5H27V415.5H29V411.5H33V409.5H29Z" fill="#193C66"/>
</g>
<g clip-path="url(#clip4_2169_611)">
<path fill-rule="evenodd" clip-rule="evenodd" d="M235.167 214.042V208.333H232.333V214.042H226.667V216.896H232.333V222.604H235.167V216.896H240.833V214.042H235.167ZM235.167 171.229V165.521H232.333V171.229H226.667V174.083H232.333V179.792H235.167V174.083H240.833V171.229H235.167ZM192.667 214.042V208.333H189.833V214.042H184.167V216.896H189.833V222.604H192.667V216.896H198.333V214.042H192.667ZM192.667 171.229V165.521H189.833V171.229H184.167V174.083H189.833V179.792H192.667V174.083H198.333V171.229H192.667Z" fill="#193C66"/>
<path fill-rule="evenodd" clip-rule="evenodd" d="M229 268.25V264.25H227V268.25H223V270.25H227V274.25H229V270.25H233V268.25H229ZM229 238.25V234.25H227V238.25H223V240.25H227V244.25H229V240.25H233V238.25H229ZM199 268.25V264.25H197V268.25H193V270.25H197V274.25H199V270.25H203V268.25H199ZM199 238.25V234.25H197V238.25H193V240.25H197V244.25H199V240.25H203V238.25H199Z" fill="#193C66"/>
</g>
<g clip-path="url(#clip5_2169_611)">
<path fill-rule="evenodd" clip-rule="evenodd" d="M65.1665 214.042V208.333H62.3332V214.042H56.6665V216.896H62.3332V222.604H65.1665V216.896H70.8332V214.042H65.1665ZM65.1665 171.229V165.521H62.3332V171.229H56.6665V174.083H62.3332V179.792H65.1665V174.083H70.8332V171.229H65.1665ZM22.6665 214.042V208.333H19.8332V214.042H14.1665V216.896H19.8332V222.604H22.6665V216.896H28.3332V214.042H22.6665ZM22.6665 171.229V165.521H19.8332V171.229H14.1665V174.083H19.8332V179.792H22.6665V174.083H28.3332V171.229H22.6665Z" fill="#193C66"/>
<path fill-rule="evenodd" clip-rule="evenodd" d="M59 268.25V264.25H57V268.25H53V270.25H57V274.25H59V270.25H63V268.25H59ZM59 238.25V234.25H57V238.25H53V240.25H57V244.25H59V240.25H63V238.25H59ZM29 268.25V264.25H27V268.25H23V270.25H27V274.25H29V270.25H33V268.25H29ZM29 238.25V234.25H27V238.25H23V240.25H27V244.25H29V240.25H33V238.25H29Z" fill="#193C66"/>
</g>
<g clip-path="url(#clip6_2169_611)">
<path fill-rule="evenodd" clip-rule="evenodd" d="M235.167 556.542V550.833H232.333V556.542H226.667V559.396H232.333V565.104H235.167V559.396H240.833V556.542H235.167ZM235.167 513.729V508.021H232.333V513.729H226.667V516.583H232.333V522.292H235.167V516.583H240.833V513.729H235.167ZM192.667 556.542V550.833H189.833V556.542H184.167V559.396H189.833V565.104H192.667V559.396H198.333V556.542H192.667ZM192.667 513.729V508.021H189.833V513.729H184.167V516.583H189.833V522.292H192.667V516.583H198.333V513.729H192.667Z" fill="#193C66"/>
<path fill-rule="evenodd" clip-rule="evenodd" d="M229 610.75V606.75H227V610.75H223V612.75H227V616.75H229V612.75H233V610.75H229ZM229 580.75V576.75H227V580.75H223V582.75H227V586.75H229V582.75H233V580.75H229ZM199 610.75V606.75H197V610.75H193V612.75H197V616.75H199V612.75H203V610.75H199ZM199 580.75V576.75H197V580.75H193V582.75H197V586.75H199V582.75H203V580.75H199Z" fill="#193C66"/>
</g>
<g clip-path="url(#clip7_2169_611)">
<path fill-rule="evenodd" clip-rule="evenodd" d="M65.1665 556.542V550.833H62.3332V556.542H56.6665V559.396H62.3332V565.104H65.1665V559.396H70.8332V556.542H65.1665ZM65.1665 513.729V508.021H62.3332V513.729H56.6665V516.583H62.3332V522.292H65.1665V516.583H70.8332V513.729H65.1665ZM22.6665 556.542V550.833H19.8332V556.542H14.1665V559.396H19.8332V565.104H22.6665V559.396H28.3332V556.542H22.6665ZM22.6665 513.729V508.021H19.8332V513.729H14.1665V516.583H19.8332V522.292H22.6665V516.583H28.3332V513.729H22.6665Z" fill="#193C66"/>
<path fill-rule="evenodd" clip-rule="evenodd" d="M59 610.75V606.75H57V610.75H53V612.75H57V616.75H59V612.75H63V610.75H59ZM59 580.75V576.75H57V580.75H53V582.75H57V586.75H59V582.75H63V580.75H59ZM29 610.75V606.75H27V610.75H23V612.75H27V616.75H29V612.75H33V610.75H29ZM29 580.75V576.75H27V580.75H23V582.75H27V586.75H29V582.75H33V580.75H29Z" fill="#193C66"/>
</g>
<g clip-path="url(#clip8_2169_611)">
<path fill-rule="evenodd" clip-rule="evenodd" d="M235.167 128.417V122.708H232.333V128.417H226.667V131.271H232.333V136.979H235.167V131.271H240.833V128.417H235.167ZM235.167 85.6043V79.896H232.333V85.6043H226.667V88.4585H232.333V94.1668H235.167V88.4585H240.833V85.6043H235.167ZM192.667 128.417V122.708H189.833V128.417H184.167V131.271H189.833V136.979H192.667V131.271H198.333V128.417H192.667ZM192.667 85.6043V79.896H189.833V85.6043H184.167V88.4585H189.833V94.1668H192.667V88.4585H198.333V85.6043H192.667Z" fill="#193C66"/>
<path fill-rule="evenodd" clip-rule="evenodd" d="M229 182.625V178.625H227V182.625H223V184.625H227V188.625H229V184.625H233V182.625H229ZM229 152.625V148.625H227V152.625H223V154.625H227V158.625H229V154.625H233V152.625H229ZM199 182.625V178.625H197V182.625H193V184.625H197V188.625H199V184.625H203V182.625H199ZM199 152.625V148.625H197V152.625H193V154.625H197V158.625H199V154.625H203V152.625H199Z" fill="#193C66"/>
<g clip-path="url(#clip9_2169_611)">
<path fill-rule="evenodd" clip-rule="evenodd" d="M229 182.625V178.625H227V182.625H223V184.625H227V188.625H229V184.625H233V182.625H229ZM229 152.625V148.625H227V152.625H223V154.625H227V158.625H229V154.625H233V152.625H229ZM199 182.625V178.625H197V182.625H193V184.625H197V188.625H199V184.625H203V182.625H199ZM199 152.625V148.625H197V152.625H193V154.625H197V158.625H199V154.625H203V152.625H199Z" fill="#193C66"/>
</g>
</g>
<g clip-path="url(#clip10_2169_611)">
<path fill-rule="evenodd" clip-rule="evenodd" d="M65.1665 128.417V122.708H62.3332V128.417H56.6665V131.271H62.3332V136.979H65.1665V131.271H70.8332V128.417H65.1665ZM65.1665 85.6043V79.896H62.3332V85.6043H56.6665V88.4585H62.3332V94.1668H65.1665V88.4585H70.8332V85.6043H65.1665ZM22.6665 128.417V122.708H19.8332V128.417H14.1665V131.271H19.8332V136.979H22.6665V131.271H28.3332V128.417H22.6665ZM22.6665 85.6043V79.896H19.8332V85.6043H14.1665V88.4585H19.8332V94.1668H22.6665V88.4585H28.3332V85.6043H22.6665Z" fill="#193C66"/>
<path fill-rule="evenodd" clip-rule="evenodd" d="M59 182.625V178.625H57V182.625H53V184.625H57V188.625H59V184.625H63V182.625H59ZM59 152.625V148.625H57V152.625H53V154.625H57V158.625H59V154.625H63V152.625H59ZM29 182.625V178.625H27V182.625H23V184.625H27V188.625H29V184.625H33V182.625H29ZM29 152.625V148.625H27V152.625H23V154.625H27V158.625H29V154.625H33V152.625H29Z" fill="#193C66"/>
<g clip-path="url(#clip11_2169_611)">
<path fill-rule="evenodd" clip-rule="evenodd" d="M59 182.625V178.625H57V182.625H53V184.625H57V188.625H59V184.625H63V182.625H59ZM59 152.625V148.625H57V152.625H53V154.625H57V158.625H59V154.625H63V152.625H59ZM29 182.625V178.625H27V182.625H23V184.625H27V188.625H29V184.625H33V182.625H29ZM29 152.625V148.625H27V152.625H23V154.625H27V158.625H29V154.625H33V152.625H29Z" fill="#193C66"/>
</g>
</g>
<g clip-path="url(#clip12_2169_611)">
<path fill-rule="evenodd" clip-rule="evenodd" d="M235.167 470.917V465.208H232.333V470.917H226.667V473.771H232.333V479.479H235.167V473.771H240.833V470.917H235.167ZM235.167 428.104V422.396H232.333V428.104H226.667V430.958H232.333V436.667H235.167V430.958H240.833V428.104H235.167ZM192.667 470.917V465.208H189.833V470.917H184.167V473.771H189.833V479.479H192.667V473.771H198.333V470.917H192.667ZM192.667 428.104V422.396H189.833V428.104H184.167V430.958H189.833V436.667H192.667V430.958H198.333V428.104H192.667Z" fill="#193C66"/>
<path fill-rule="evenodd" clip-rule="evenodd" d="M229 525.125V521.125H227V525.125H223V527.125H227V531.125H229V527.125H233V525.125H229ZM229 495.125V491.125H227V495.125H223V497.125H227V501.125H229V497.125H233V495.125H229ZM199 525.125V521.125H197V525.125H193V527.125H197V531.125H199V527.125H203V525.125H199ZM199 495.125V491.125H197V495.125H193V497.125H197V501.125H199V497.125H203V495.125H199Z" fill="#193C66"/>
<g clip-path="url(#clip13_2169_611)">
<path fill-rule="evenodd" clip-rule="evenodd" d="M229 525.125V521.125H227V525.125H223V527.125H227V531.125H229V527.125H233V525.125H229ZM229 495.125V491.125H227V495.125H223V497.125H227V501.125H229V497.125H233V495.125H229ZM199 525.125V521.125H197V525.125H193V527.125H197V531.125H199V527.125H203V525.125H199ZM199 495.125V491.125H197V495.125H193V497.125H197V501.125H199V497.125H203V495.125H199Z" fill="#193C66"/>
</g>
</g>
<g clip-path="url(#clip14_2169_611)">
<path fill-rule="evenodd" clip-rule="evenodd" d="M65.1665 470.917V465.208H62.3332V470.917H56.6665V473.771H62.3332V479.479H65.1665V473.771H70.8332V470.917H65.1665ZM65.1665 428.104V422.396H62.3332V428.104H56.6665V430.958H62.3332V436.667H65.1665V430.958H70.8332V428.104H65.1665ZM22.6665 470.917V465.208H19.8332V470.917H14.1665V473.771H19.8332V479.479H22.6665V473.771H28.3332V470.917H22.6665ZM22.6665 428.104V422.396H19.8332V428.104H14.1665V430.958H19.8332V436.667H22.6665V430.958H28.3332V428.104H22.6665Z" fill="#193C66"/>
<path fill-rule="evenodd" clip-rule="evenodd" d="M59 525.125V521.125H57V525.125H53V527.125H57V531.125H59V527.125H63V525.125H59ZM59 495.125V491.125H57V495.125H53V497.125H57V501.125H59V497.125H63V495.125H59ZM29 525.125V521.125H27V525.125H23V527.125H27V531.125H29V527.125H33V525.125H29ZM29 495.125V491.125H27V495.125H23V497.125H27V501.125H29V497.125H33V495.125H29Z" fill="#193C66"/>
<g clip-path="url(#clip15_2169_611)">
<path fill-rule="evenodd" clip-rule="evenodd" d="M59 525.125V521.125H57V525.125H53V527.125H57V531.125H59V527.125H63V525.125H59ZM59 495.125V491.125H57V495.125H53V497.125H57V501.125H59V497.125H63V495.125H59ZM29 525.125V521.125H27V525.125H23V527.125H27V531.125H29V527.125H33V525.125H29ZM29 495.125V491.125H27V495.125H23V497.125H27V501.125H29V497.125H33V495.125H29Z" fill="#193C66"/>
</g>
</g>
<g clip-path="url(#clip16_2169_611)">
<path fill-rule="evenodd" clip-rule="evenodd" d="M235.167 299.667V293.958H232.333V299.667H226.667V302.521H232.333V308.229H235.167V302.521H240.833V299.667H235.167ZM235.167 256.854V251.146H232.333V256.854H226.667V259.708H232.333V265.417H235.167V259.708H240.833V256.854H235.167ZM192.667 299.667V293.958H189.833V299.667H184.167V302.521H189.833V308.229H192.667V302.521H198.333V299.667H192.667ZM192.667 256.854V251.146H189.833V256.854H184.167V259.708H189.833V265.417H192.667V259.708H198.333V256.854H192.667Z" fill="#193C66"/>
<path fill-rule="evenodd" clip-rule="evenodd" d="M229 353.875V349.875H227V353.875H223V355.875H227V359.875H229V355.875H233V353.875H229ZM229 323.875V319.875H227V323.875H223V325.875H227V329.875H229V325.875H233V323.875H229ZM199 353.875V349.875H197V353.875H193V355.875H197V359.875H199V355.875H203V353.875H199ZM199 323.875V319.875H197V323.875H193V325.875H197V329.875H199V325.875H203V323.875H199Z" fill="#193C66"/>
<g clip-path="url(#clip17_2169_611)">
<path fill-rule="evenodd" clip-rule="evenodd" d="M229 353.875V349.875H227V353.875H223V355.875H227V359.875H229V355.875H233V353.875H229ZM229 323.875V319.875H227V323.875H223V325.875H227V329.875H229V325.875H233V323.875H229ZM199 353.875V349.875H197V353.875H193V355.875H197V359.875H199V355.875H203V353.875H199ZM199 323.875V319.875H197V323.875H193V325.875H197V329.875H199V325.875H203V323.875H199Z" fill="#193C66"/>
</g>
</g>
<g clip-path="url(#clip18_2169_611)">
<path fill-rule="evenodd" clip-rule="evenodd" d="M65.1665 299.667V293.958H62.3332V299.667H56.6665V302.521H62.3332V308.229H65.1665V302.521H70.8332V299.667H65.1665ZM65.1665 256.854V251.146H62.3332V256.854H56.6665V259.708H62.3332V265.417H65.1665V259.708H70.8332V256.854H65.1665ZM22.6665 299.667V293.958H19.8332V299.667H14.1665V302.521H19.8332V308.229H22.6665V302.521H28.3332V299.667H22.6665ZM22.6665 256.854V251.146H19.8332V256.854H14.1665V259.708H19.8332V265.417H22.6665V259.708H28.3332V256.854H22.6665Z" fill="#193C66"/>
<path fill-rule="evenodd" clip-rule="evenodd" d="M59 353.875V349.875H57V353.875H53V355.875H57V359.875H59V355.875H63V353.875H59ZM59 323.875V319.875H57V323.875H53V325.875H57V329.875H59V325.875H63V323.875H59ZM29 353.875V349.875H27V353.875H23V355.875H27V359.875H29V355.875H33V353.875H29ZM29 323.875V319.875H27V323.875H23V325.875H27V329.875H29V325.875H33V323.875H29Z" fill="#193C66"/>
<g clip-path="url(#clip19_2169_611)">
<path fill-rule="evenodd" clip-rule="evenodd" d="M59 353.875V349.875H57V353.875H53V355.875H57V359.875H59V355.875H63V353.875H59ZM59 323.875V319.875H57V323.875H53V325.875H57V329.875H59V325.875H63V323.875H59ZM29 353.875V349.875H27V353.875H23V355.875H27V359.875H29V355.875H33V353.875H29ZM29 323.875V319.875H27V323.875H23V325.875H27V329.875H29V325.875H33V323.875H29Z" fill="#193C66"/>
</g>
</g>
<g clip-path="url(#clip20_2169_611)">
<path fill-rule="evenodd" clip-rule="evenodd" d="M320.167 42.7918V37.0835H317.333V42.7918H311.667V45.646H317.333V51.3543H320.167V45.646H325.833V42.7918H320.167ZM320.167 -0.0206709V-5.729H317.333V-0.0206709H311.667V2.8335H317.333V8.54183H320.167V2.8335H325.833V-0.0206709H320.167ZM277.667 42.7918V37.0835H274.833V42.7918H269.167V45.646H274.833V51.3543H277.667V45.646H283.333V42.7918H277.667ZM277.667 -0.0206709V-5.729H274.833V-0.0206709H269.167V2.8335H274.833V8.54183H277.667V2.8335H283.333V-0.0206709H277.667Z" fill="#193C66"/>
<g clip-path="url(#clip21_2169_611)">
<path fill-rule="evenodd" clip-rule="evenodd" d="M314 97V93H312V97H308V99H312V103H314V99H318V97H314ZM314 67V63H312V67H308V69H312V73H314V69H318V67H314ZM284 97V93H282V97H278V99H282V103H284V99H288V97H284ZM284 67V63H282V67H278V69H282V73H284V69H288V67H284Z" fill="#193C66"/>
</g>
<g clip-path="url(#clip22_2169_611)">
<path fill-rule="evenodd" clip-rule="evenodd" d="M314 97V93H312V97H308V99H312V103H314V99H318V97H314ZM314 67V63H312V67H308V69H312V73H314V69H318V67H314ZM284 97V93H282V97H278V99H282V103H284V99H288V97H284ZM284 67V63H282V67H278V69H282V73H284V69H288V67H284Z" fill="#193C66"/>
</g>
</g>
<g clip-path="url(#clip23_2169_611)">
<path fill-rule="evenodd" clip-rule="evenodd" d="M150.167 42.7918V37.0835H147.333V42.7918H141.667V45.646H147.333V51.3543H150.167V45.646H155.833V42.7918H150.167ZM150.167 -0.0206709V-5.729H147.333V-0.0206709H141.667V2.8335H147.333V8.54183H150.167V2.8335H155.833V-0.0206709H150.167ZM107.667 42.7918V37.0835H104.833V42.7918H99.1665V45.646H104.833V51.3543H107.667V45.646H113.333V42.7918H107.667ZM107.667 -0.0206709V-5.729H104.833V-0.0206709H99.1665V2.8335H104.833V8.54183H107.667V2.8335H113.333V-0.0206709H107.667Z" fill="#193C66"/>
<g clip-path="url(#clip24_2169_611)">
<path fill-rule="evenodd" clip-rule="evenodd" d="M144 97V93H142V97H138V99H142V103H144V99H148V97H144ZM144 67V63H142V67H138V69H142V73H144V69H148V67H144ZM114 97V93H112V97H108V99H112V103H114V99H118V97H114ZM114 67V63H112V67H108V69H112V73H114V69H118V67H114Z" fill="#193C66"/>
</g>
<g clip-path="url(#clip25_2169_611)">
<path fill-rule="evenodd" clip-rule="evenodd" d="M144 97V93H142V97H138V99H142V103H144V99H148V97H144ZM144 67V63H142V67H138V69H142V73H144V69H148V67H144ZM114 97V93H112V97H108V99H112V103H114V99H118V97H114ZM114 67V63H112V67H108V69H112V73H114V69H118V67H114Z" fill="#193C66"/>
</g>
</g>
<g clip-path="url(#clip26_2169_611)">
<path fill-rule="evenodd" clip-rule="evenodd" d="M320.167 385.292V379.583H317.333V385.292H311.667V388.146H317.333V393.854H320.167V388.146H325.833V385.292H320.167ZM320.167 342.479V336.771H317.333V342.479H311.667V345.333H317.333V351.042H320.167V345.333H325.833V342.479H320.167ZM277.667 385.292V379.583H274.833V385.292H269.167V388.146H274.833V393.854H277.667V388.146H283.333V385.292H277.667ZM277.667 342.479V336.771H274.833V342.479H269.167V345.333H274.833V351.042H277.667V345.333H283.333V342.479H277.667Z" fill="#193C66"/>
<g clip-path="url(#clip27_2169_611)">
<path fill-rule="evenodd" clip-rule="evenodd" d="M314 439.5V435.5H312V439.5H308V441.5H312V445.5H314V441.5H318V439.5H314ZM314 409.5V405.5H312V409.5H308V411.5H312V415.5H314V411.5H318V409.5H314ZM284 439.5V435.5H282V439.5H278V441.5H282V445.5H284V441.5H288V439.5H284ZM284 409.5V405.5H282V409.5H278V411.5H282V415.5H284V411.5H288V409.5H284Z" fill="#193C66"/>
</g>
<g clip-path="url(#clip28_2169_611)">
<path fill-rule="evenodd" clip-rule="evenodd" d="M314 439.5V435.5H312V439.5H308V441.5H312V445.5H314V441.5H318V439.5H314ZM314 409.5V405.5H312V409.5H308V411.5H312V415.5H314V411.5H318V409.5H314ZM284 439.5V435.5H282V439.5H278V441.5H282V445.5H284V441.5H288V439.5H284ZM284 409.5V405.5H282V409.5H278V411.5H282V415.5H284V411.5H288V409.5H284Z" fill="#193C66"/>
</g>
</g>
<g clip-path="url(#clip29_2169_611)">
<path fill-rule="evenodd" clip-rule="evenodd" d="M150.167 385.292V379.583H147.333V385.292H141.667V388.146H147.333V393.854H150.167V388.146H155.833V385.292H150.167ZM150.167 342.479V336.771H147.333V342.479H141.667V345.333H147.333V351.042H150.167V345.333H155.833V342.479H150.167ZM107.667 385.292V379.583H104.833V385.292H99.1665V388.146H104.833V393.854H107.667V388.146H113.333V385.292H107.667ZM107.667 342.479V336.771H104.833V342.479H99.1665V345.333H104.833V351.042H107.667V345.333H113.333V342.479H107.667Z" fill="#193C66"/>
<g clip-path="url(#clip30_2169_611)">
<path fill-rule="evenodd" clip-rule="evenodd" d="M144 439.5V435.5H142V439.5H138V441.5H142V445.5H144V441.5H148V439.5H144ZM144 409.5V405.5H142V409.5H138V411.5H142V415.5H144V411.5H148V409.5H144ZM114 439.5V435.5H112V439.5H108V441.5H112V445.5H114V441.5H118V439.5H114ZM114 409.5V405.5H112V409.5H108V411.5H112V415.5H114V411.5H118V409.5H114Z" fill="#193C66"/>
</g>
<g clip-path="url(#clip31_2169_611)">
<path fill-rule="evenodd" clip-rule="evenodd" d="M144 439.5V435.5H142V439.5H138V441.5H142V445.5H144V441.5H148V439.5H144ZM144 409.5V405.5H142V409.5H138V411.5H142V415.5H144V411.5H148V409.5H144ZM114 439.5V435.5H112V439.5H108V441.5H112V445.5H114V441.5H118V439.5H114ZM114 409.5V405.5H112V409.5H108V411.5H112V415.5H114V411.5H118V409.5H114Z" fill="#193C66"/>
</g>
</g>
<g clip-path="url(#clip32_2169_611)">
<path fill-rule="evenodd" clip-rule="evenodd" d="M320.167 214.042V208.333H317.333V214.042H311.667V216.896H317.333V222.604H320.167V216.896H325.833V214.042H320.167ZM320.167 171.229V165.521H317.333V171.229H311.667V174.083H317.333V179.792H320.167V174.083H325.833V171.229H320.167ZM277.667 214.042V208.333H274.833V214.042H269.167V216.896H274.833V222.604H277.667V216.896H283.333V214.042H277.667ZM277.667 171.229V165.521H274.833V171.229H269.167V174.083H274.833V179.792H277.667V174.083H283.333V171.229H277.667Z" fill="#193C66"/>
<g clip-path="url(#clip33_2169_611)">
<path fill-rule="evenodd" clip-rule="evenodd" d="M314 268.25V264.25H312V268.25H308V270.25H312V274.25H314V270.25H318V268.25H314ZM314 238.25V234.25H312V238.25H308V240.25H312V244.25H314V240.25H318V238.25H314ZM284 268.25V264.25H282V268.25H278V270.25H282V274.25H284V270.25H288V268.25H284ZM284 238.25V234.25H282V238.25H278V240.25H282V244.25H284V240.25H288V238.25H284Z" fill="#193C66"/>
</g>
<g clip-path="url(#clip34_2169_611)">
<path fill-rule="evenodd" clip-rule="evenodd" d="M314 268.25V264.25H312V268.25H308V270.25H312V274.25H314V270.25H318V268.25H314ZM314 238.25V234.25H312V238.25H308V240.25H312V244.25H314V240.25H318V238.25H314ZM284 268.25V264.25H282V268.25H278V270.25H282V274.25H284V270.25H288V268.25H284ZM284 238.25V234.25H282V238.25H278V240.25H282V244.25H284V240.25H288V238.25H284Z" fill="#193C66"/>
</g>
</g>
<g clip-path="url(#clip35_2169_611)">
<path fill-rule="evenodd" clip-rule="evenodd" d="M150.167 214.042V208.333H147.333V214.042H141.667V216.896H147.333V222.604H150.167V216.896H155.833V214.042H150.167ZM150.167 171.229V165.521H147.333V171.229H141.667V174.083H147.333V179.792H150.167V174.083H155.833V171.229H150.167ZM107.667 214.042V208.333H104.833V214.042H99.1665V216.896H104.833V222.604H107.667V216.896H113.333V214.042H107.667ZM107.667 171.229V165.521H104.833V171.229H99.1665V174.083H104.833V179.792H107.667V174.083H113.333V171.229H107.667Z" fill="#193C66"/>
<g clip-path="url(#clip36_2169_611)">
<path fill-rule="evenodd" clip-rule="evenodd" d="M144 268.25V264.25H142V268.25H138V270.25H142V274.25H144V270.25H148V268.25H144ZM144 238.25V234.25H142V238.25H138V240.25H142V244.25H144V240.25H148V238.25H144ZM114 268.25V264.25H112V268.25H108V270.25H112V274.25H114V270.25H118V268.25H114ZM114 238.25V234.25H112V238.25H108V240.25H112V244.25H114V240.25H118V238.25H114Z" fill="#193C66"/>
</g>
<g clip-path="url(#clip37_2169_611)">
<path fill-rule="evenodd" clip-rule="evenodd" d="M144 268.25V264.25H142V268.25H138V270.25H142V274.25H144V270.25H148V268.25H144ZM144 238.25V234.25H142V238.25H138V240.25H142V244.25H144V240.25H148V238.25H144ZM114 268.25V264.25H112V268.25H108V270.25H112V274.25H114V270.25H118V268.25H114ZM114 238.25V234.25H112V238.25H108V240.25H112V244.25H114V240.25H118V238.25H114Z" fill="#193C66"/>
</g>
</g>
<g clip-path="url(#clip38_2169_611)">
<path fill-rule="evenodd" clip-rule="evenodd" d="M320.167 556.542V550.833H317.333V556.542H311.667V559.396H317.333V565.104H320.167V559.396H325.833V556.542H320.167ZM320.167 513.729V508.021H317.333V513.729H311.667V516.583H317.333V522.292H320.167V516.583H325.833V513.729H320.167ZM277.667 556.542V550.833H274.833V556.542H269.167V559.396H274.833V565.104H277.667V559.396H283.333V556.542H277.667ZM277.667 513.729V508.021H274.833V513.729H269.167V516.583H274.833V522.292H277.667V516.583H283.333V513.729H277.667Z" fill="#193C66"/>
<g clip-path="url(#clip39_2169_611)">
<path fill-rule="evenodd" clip-rule="evenodd" d="M314 610.75V606.75H312V610.75H308V612.75H312V616.75H314V612.75H318V610.75H314ZM314 580.75V576.75H312V580.75H308V582.75H312V586.75H314V582.75H318V580.75H314ZM284 610.75V606.75H282V610.75H278V612.75H282V616.75H284V612.75H288V610.75H284ZM284 580.75V576.75H282V580.75H278V582.75H282V586.75H284V582.75H288V580.75H284Z" fill="#193C66"/>
</g>
<g clip-path="url(#clip40_2169_611)">
<path fill-rule="evenodd" clip-rule="evenodd" d="M314 610.75V606.75H312V610.75H308V612.75H312V616.75H314V612.75H318V610.75H314ZM314 580.75V576.75H312V580.75H308V582.75H312V586.75H314V582.75H318V580.75H314ZM284 610.75V606.75H282V610.75H278V612.75H282V616.75H284V612.75H288V610.75H284ZM284 580.75V576.75H282V580.75H278V582.75H282V586.75H284V582.75H288V580.75H284Z" fill="#193C66"/>
</g>
</g>
<g clip-path="url(#clip41_2169_611)">
<path fill-rule="evenodd" clip-rule="evenodd" d="M150.167 556.542V550.833H147.333V556.542H141.667V559.396H147.333V565.104H150.167V559.396H155.833V556.542H150.167ZM150.167 513.729V508.021H147.333V513.729H141.667V516.583H147.333V522.292H150.167V516.583H155.833V513.729H150.167ZM107.667 556.542V550.833H104.833V556.542H99.1665V559.396H104.833V565.104H107.667V559.396H113.333V556.542H107.667ZM107.667 513.729V508.021H104.833V513.729H99.1665V516.583H104.833V522.292H107.667V516.583H113.333V513.729H107.667Z" fill="#193C66"/>
<g clip-path="url(#clip42_2169_611)">
<path fill-rule="evenodd" clip-rule="evenodd" d="M144 610.75V606.75H142V610.75H138V612.75H142V616.75H144V612.75H148V610.75H144ZM144 580.75V576.75H142V580.75H138V582.75H142V586.75H144V582.75H148V580.75H144ZM114 610.75V606.75H112V610.75H108V612.75H112V616.75H114V612.75H118V610.75H114ZM114 580.75V576.75H112V580.75H108V582.75H112V586.75H114V582.75H118V580.75H114Z" fill="#193C66"/>
</g>
<g clip-path="url(#clip43_2169_611)">
<path fill-rule="evenodd" clip-rule="evenodd" d="M144 610.75V606.75H142V610.75H138V612.75H142V616.75H144V612.75H148V610.75H144ZM144 580.75V576.75H142V580.75H138V582.75H142V586.75H144V582.75H148V580.75H144ZM114 610.75V606.75H112V610.75H108V612.75H112V616.75H114V612.75H118V610.75H114ZM114 580.75V576.75H112V580.75H108V582.75H112V586.75H114V582.75H118V580.75H114Z" fill="#193C66"/>
</g>
</g>
<g clip-path="url(#clip44_2169_611)">
<path fill-rule="evenodd" clip-rule="evenodd" d="M320.167 128.417V122.708H317.333V128.417H311.667V131.271H317.333V136.979H320.167V131.271H325.833V128.417H320.167ZM320.167 85.6043V79.896H317.333V85.6043H311.667V88.4585H317.333V94.1668H320.167V88.4585H325.833V85.6043H320.167ZM277.667 128.417V122.708H274.833V128.417H269.167V131.271H274.833V136.979H277.667V131.271H283.333V128.417H277.667ZM277.667 85.6043V79.896H274.833V85.6043H269.167V88.4585H274.833V94.1668H277.667V88.4585H283.333V85.6043H277.667Z" fill="#193C66"/>
<g clip-path="url(#clip45_2169_611)">
<path fill-rule="evenodd" clip-rule="evenodd" d="M314 182.625V178.625H312V182.625H308V184.625H312V188.625H314V184.625H318V182.625H314ZM314 152.625V148.625H312V152.625H308V154.625H312V158.625H314V154.625H318V152.625H314ZM284 182.625V178.625H282V182.625H278V184.625H282V188.625H284V184.625H288V182.625H284ZM284 152.625V148.625H282V152.625H278V154.625H282V158.625H284V154.625H288V152.625H284Z" fill="#193C66"/>
</g>
<g clip-path="url(#clip46_2169_611)">
<path fill-rule="evenodd" clip-rule="evenodd" d="M314 182.625V178.625H312V182.625H308V184.625H312V188.625H314V184.625H318V182.625H314ZM314 152.625V148.625H312V152.625H308V154.625H312V158.625H314V154.625H318V152.625H314ZM284 182.625V178.625H282V182.625H278V184.625H282V188.625H284V184.625H288V182.625H284ZM284 152.625V148.625H282V152.625H278V154.625H282V158.625H284V154.625H288V152.625H284Z" fill="#193C66"/>
</g>
</g>
<g clip-path="url(#clip47_2169_611)">
<path fill-rule="evenodd" clip-rule="evenodd" d="M150.167 128.417V122.708H147.333V128.417H141.667V131.271H147.333V136.979H150.167V131.271H155.833V128.417H150.167ZM150.167 85.6043V79.896H147.333V85.6043H141.667V88.4585H147.333V94.1668H150.167V88.4585H155.833V85.6043H150.167ZM107.667 128.417V122.708H104.833V128.417H99.1665V131.271H104.833V136.979H107.667V131.271H113.333V128.417H107.667ZM107.667 85.6043V79.896H104.833V85.6043H99.1665V88.4585H104.833V94.1668H107.667V88.4585H113.333V85.6043H107.667Z" fill="#193C66"/>
<g clip-path="url(#clip48_2169_611)">
<path fill-rule="evenodd" clip-rule="evenodd" d="M144 182.625V178.625H142V182.625H138V184.625H142V188.625H144V184.625H148V182.625H144ZM144 152.625V148.625H142V152.625H138V154.625H142V158.625H144V154.625H148V152.625H144ZM114 182.625V178.625H112V182.625H108V184.625H112V188.625H114V184.625H118V182.625H114ZM114 152.625V148.625H112V152.625H108V154.625H112V158.625H114V154.625H118V152.625H114Z" fill="#193C66"/>
</g>
<g clip-path="url(#clip49_2169_611)">
<path fill-rule="evenodd" clip-rule="evenodd" d="M144 182.625V178.625H142V182.625H138V184.625H142V188.625H144V184.625H148V182.625H144ZM144 152.625V148.625H142V152.625H138V154.625H142V158.625H144V154.625H148V152.625H144ZM114 182.625V178.625H112V182.625H108V184.625H112V188.625H114V184.625H118V182.625H114ZM114 152.625V148.625H112V152.625H108V154.625H112V158.625H114V154.625H118V152.625H114Z" fill="#193C66"/>
</g>
</g>
<g clip-path="url(#clip50_2169_611)">
<path fill-rule="evenodd" clip-rule="evenodd" d="M320.167 470.917V465.208H317.333V470.917H311.667V473.771H317.333V479.479H320.167V473.771H325.833V470.917H320.167ZM320.167 428.104V422.396H317.333V428.104H311.667V430.958H317.333V436.667H320.167V430.958H325.833V428.104H320.167ZM277.667 470.917V465.208H274.833V470.917H269.167V473.771H274.833V479.479H277.667V473.771H283.333V470.917H277.667ZM277.667 428.104V422.396H274.833V428.104H269.167V430.958H274.833V436.667H277.667V430.958H283.333V428.104H277.667Z" fill="#193C66"/>
<g clip-path="url(#clip51_2169_611)">
<path fill-rule="evenodd" clip-rule="evenodd" d="M314 525.125V521.125H312V525.125H308V527.125H312V531.125H314V527.125H318V525.125H314ZM314 495.125V491.125H312V495.125H308V497.125H312V501.125H314V497.125H318V495.125H314ZM284 525.125V521.125H282V525.125H278V527.125H282V531.125H284V527.125H288V525.125H284ZM284 495.125V491.125H282V495.125H278V497.125H282V501.125H284V497.125H288V495.125H284Z" fill="#193C66"/>
</g>
<g clip-path="url(#clip52_2169_611)">
<path fill-rule="evenodd" clip-rule="evenodd" d="M314 525.125V521.125H312V525.125H308V527.125H312V531.125H314V527.125H318V525.125H314ZM314 495.125V491.125H312V495.125H308V497.125H312V501.125H314V497.125H318V495.125H314ZM284 525.125V521.125H282V525.125H278V527.125H282V531.125H284V527.125H288V525.125H284ZM284 495.125V491.125H282V495.125H278V497.125H282V501.125H284V497.125H288V495.125H284Z" fill="#193C66"/>
</g>
</g>
<g clip-path="url(#clip53_2169_611)">
<path fill-rule="evenodd" clip-rule="evenodd" d="M150.167 470.917V465.208H147.333V470.917H141.667V473.771H147.333V479.479H150.167V473.771H155.833V470.917H150.167ZM150.167 428.104V422.396H147.333V428.104H141.667V430.958H147.333V436.667H150.167V430.958H155.833V428.104H150.167ZM107.667 470.917V465.208H104.833V470.917H99.1665V473.771H104.833V479.479H107.667V473.771H113.333V470.917H107.667ZM107.667 428.104V422.396H104.833V428.104H99.1665V430.958H104.833V436.667H107.667V430.958H113.333V428.104H107.667Z" fill="#193C66"/>
<g clip-path="url(#clip54_2169_611)">
<path fill-rule="evenodd" clip-rule="evenodd" d="M144 525.125V521.125H142V525.125H138V527.125H142V531.125H144V527.125H148V525.125H144ZM144 495.125V491.125H142V495.125H138V497.125H142V501.125H144V497.125H148V495.125H144ZM114 525.125V521.125H112V525.125H108V527.125H112V531.125H114V527.125H118V525.125H114ZM114 495.125V491.125H112V495.125H108V497.125H112V501.125H114V497.125H118V495.125H114Z" fill="#193C66"/>
</g>
<g clip-path="url(#clip55_2169_611)">
<path fill-rule="evenodd" clip-rule="evenodd" d="M144 525.125V521.125H142V525.125H138V527.125H142V531.125H144V527.125H148V525.125H144ZM144 495.125V491.125H142V495.125H138V497.125H142V501.125H144V497.125H148V495.125H144ZM114 525.125V521.125H112V525.125H108V527.125H112V531.125H114V527.125H118V525.125H114ZM114 495.125V491.125H112V495.125H108V497.125H112V501.125H114V497.125H118V495.125H114Z" fill="#193C66"/>
</g>
</g>
<g clip-path="url(#clip56_2169_611)">
<path fill-rule="evenodd" clip-rule="evenodd" d="M320.167 299.667V293.958H317.333V299.667H311.667V302.521H317.333V308.229H320.167V302.521H325.833V299.667H320.167ZM320.167 256.854V251.146H317.333V256.854H311.667V259.708H317.333V265.417H320.167V259.708H325.833V256.854H320.167ZM277.667 299.667V293.958H274.833V299.667H269.167V302.521H274.833V308.229H277.667V302.521H283.333V299.667H277.667ZM277.667 256.854V251.146H274.833V256.854H269.167V259.708H274.833V265.417H277.667V259.708H283.333V256.854H277.667Z" fill="#193C66"/>
<g clip-path="url(#clip57_2169_611)">
<path fill-rule="evenodd" clip-rule="evenodd" d="M314 353.875V349.875H312V353.875H308V355.875H312V359.875H314V355.875H318V353.875H314ZM314 323.875V319.875H312V323.875H308V325.875H312V329.875H314V325.875H318V323.875H314ZM284 353.875V349.875H282V353.875H278V355.875H282V359.875H284V355.875H288V353.875H284ZM284 323.875V319.875H282V323.875H278V325.875H282V329.875H284V325.875H288V323.875H284Z" fill="#193C66"/>
</g>
<g clip-path="url(#clip58_2169_611)">
<path fill-rule="evenodd" clip-rule="evenodd" d="M314 353.875V349.875H312V353.875H308V355.875H312V359.875H314V355.875H318V353.875H314ZM314 323.875V319.875H312V323.875H308V325.875H312V329.875H314V325.875H318V323.875H314ZM284 353.875V349.875H282V353.875H278V355.875H282V359.875H284V355.875H288V353.875H284ZM284 323.875V319.875H282V323.875H278V325.875H282V329.875H284V325.875H288V323.875H284Z" fill="#193C66"/>
</g>
</g>
<g clip-path="url(#clip59_2169_611)">
<path fill-rule="evenodd" clip-rule="evenodd" d="M150.167 299.667V293.958H147.333V299.667H141.667V302.521H147.333V308.229H150.167V302.521H155.833V299.667H150.167ZM150.167 256.854V251.146H147.333V256.854H141.667V259.708H147.333V265.417H150.167V259.708H155.833V256.854H150.167ZM107.667 299.667V293.958H104.833V299.667H99.1665V302.521H104.833V308.229H107.667V302.521H113.333V299.667H107.667ZM107.667 256.854V251.146H104.833V256.854H99.1665V259.708H104.833V265.417H107.667V259.708H113.333V256.854H107.667Z" fill="#193C66"/>
<g clip-path="url(#clip60_2169_611)">
<path fill-rule="evenodd" clip-rule="evenodd" d="M144 353.875V349.875H142V353.875H138V355.875H142V359.875H144V355.875H148V353.875H144ZM144 323.875V319.875H142V323.875H138V325.875H142V329.875H144V325.875H148V323.875H144ZM114 353.875V349.875H112V353.875H108V355.875H112V359.875H114V355.875H118V353.875H114ZM114 323.875V319.875H112V323.875H108V325.875H112V329.875H114V325.875H118V323.875H114Z" fill="#193C66"/>
</g>
<g clip-path="url(#clip61_2169_611)">
<path fill-rule="evenodd" clip-rule="evenodd" d="M144 353.875V349.875H142V353.875H138V355.875H142V359.875H144V355.875H148V353.875H144ZM144 323.875V319.875H142V323.875H138V325.875H142V329.875H144V325.875H148V323.875H144ZM114 353.875V349.875H112V353.875H108V355.875H112V359.875H114V355.875H118V353.875H114ZM114 323.875V319.875H112V323.875H108V325.875H112V329.875H114V325.875H118V323.875H114Z" fill="#193C66"/>
</g>
</g>
<g clip-path="url(#clip62_2169_611)">
<path fill-rule="evenodd" clip-rule="evenodd" d="M572.167 42.7918V37.0835H569.333V42.7918H563.667V45.646H569.333V51.3543H572.167V45.646H577.833V42.7918H572.167ZM572.167 -0.0206709V-5.729H569.333V-0.0206709H563.667V2.8335H569.333V8.54183H572.167V2.8335H577.833V-0.0206709H572.167ZM529.667 42.7918V37.0835H526.833V42.7918H521.167V45.646H526.833V51.3543H529.667V45.646H535.333V42.7918H529.667ZM529.667 -0.0206709V-5.729H526.833V-0.0206709H521.167V2.8335H526.833V8.54183H529.667V2.8335H535.333V-0.0206709H529.667Z" fill="#193C66"/>
<path fill-rule="evenodd" clip-rule="evenodd" d="M566 97V93H564V97H560V99H564V103H566V99H570V97H566ZM566 67V63H564V67H560V69H564V73H566V69H570V67H566ZM536 97V93H534V97H530V99H534V103H536V99H540V97H536ZM536 67V63H534V67H530V69H534V73H536V69H540V67H536Z" fill="#193C66"/>
</g>
<g clip-path="url(#clip63_2169_611)">
<path fill-rule="evenodd" clip-rule="evenodd" d="M402.167 42.7918V37.0835H399.333V42.7918H393.667V45.646H399.333V51.3543H402.167V45.646H407.833V42.7918H402.167ZM402.167 -0.0206709V-5.729H399.333V-0.0206709H393.667V2.8335H399.333V8.54183H402.167V2.8335H407.833V-0.0206709H402.167ZM359.667 42.7918V37.0835H356.833V42.7918H351.167V45.646H356.833V51.3543H359.667V45.646H365.333V42.7918H359.667ZM359.667 -0.0206709V-5.729H356.833V-0.0206709H351.167V2.8335H356.833V8.54183H359.667V2.8335H365.333V-0.0206709H359.667Z" fill="#193C66"/>
<path fill-rule="evenodd" clip-rule="evenodd" d="M396 97V93H394V97H390V99H394V103H396V99H400V97H396ZM396 67V63H394V67H390V69H394V73H396V69H400V67H396ZM366 97V93H364V97H360V99H364V103H366V99H370V97H366ZM366 67V63H364V67H360V69H364V73H366V69H370V67H366Z" fill="#193C66"/>
</g>
<g clip-path="url(#clip64_2169_611)">
<path fill-rule="evenodd" clip-rule="evenodd" d="M572.167 385.292V379.583H569.333V385.292H563.667V388.146H569.333V393.854H572.167V388.146H577.833V385.292H572.167ZM572.167 342.479V336.771H569.333V342.479H563.667V345.333H569.333V351.042H572.167V345.333H577.833V342.479H572.167ZM529.667 385.292V379.583H526.833V385.292H521.167V388.146H526.833V393.854H529.667V388.146H535.333V385.292H529.667ZM529.667 342.479V336.771H526.833V342.479H521.167V345.333H526.833V351.042H529.667V345.333H535.333V342.479H529.667Z" fill="#193C66"/>
<path fill-rule="evenodd" clip-rule="evenodd" d="M566 439.5V435.5H564V439.5H560V441.5H564V445.5H566V441.5H570V439.5H566ZM566 409.5V405.5H564V409.5H560V411.5H564V415.5H566V411.5H570V409.5H566ZM536 439.5V435.5H534V439.5H530V441.5H534V445.5H536V441.5H540V439.5H536ZM536 409.5V405.5H534V409.5H530V411.5H534V415.5H536V411.5H540V409.5H536Z" fill="#193C66"/>
</g>
<g clip-path="url(#clip65_2169_611)">
<path fill-rule="evenodd" clip-rule="evenodd" d="M402.167 385.292V379.583H399.333V385.292H393.667V388.146H399.333V393.854H402.167V388.146H407.833V385.292H402.167ZM402.167 342.479V336.771H399.333V342.479H393.667V345.333H399.333V351.042H402.167V345.333H407.833V342.479H402.167ZM359.667 385.292V379.583H356.833V385.292H351.167V388.146H356.833V393.854H359.667V388.146H365.333V385.292H359.667ZM359.667 342.479V336.771H356.833V342.479H351.167V345.333H356.833V351.042H359.667V345.333H365.333V342.479H359.667Z" fill="#193C66"/>
<path fill-rule="evenodd" clip-rule="evenodd" d="M396 439.5V435.5H394V439.5H390V441.5H394V445.5H396V441.5H400V439.5H396ZM396 409.5V405.5H394V409.5H390V411.5H394V415.5H396V411.5H400V409.5H396ZM366 439.5V435.5H364V439.5H360V441.5H364V445.5H366V441.5H370V439.5H366ZM366 409.5V405.5H364V409.5H360V411.5H364V415.5H366V411.5H370V409.5H366Z" fill="#193C66"/>
</g>
<g clip-path="url(#clip66_2169_611)">
<path fill-rule="evenodd" clip-rule="evenodd" d="M572.167 214.042V208.333H569.333V214.042H563.667V216.896H569.333V222.604H572.167V216.896H577.833V214.042H572.167ZM572.167 171.229V165.521H569.333V171.229H563.667V174.083H569.333V179.792H572.167V174.083H577.833V171.229H572.167ZM529.667 214.042V208.333H526.833V214.042H521.167V216.896H526.833V222.604H529.667V216.896H535.333V214.042H529.667ZM529.667 171.229V165.521H526.833V171.229H521.167V174.083H526.833V179.792H529.667V174.083H535.333V171.229H529.667Z" fill="#193C66"/>
<path fill-rule="evenodd" clip-rule="evenodd" d="M566 268.25V264.25H564V268.25H560V270.25H564V274.25H566V270.25H570V268.25H566ZM566 238.25V234.25H564V238.25H560V240.25H564V244.25H566V240.25H570V238.25H566ZM536 268.25V264.25H534V268.25H530V270.25H534V274.25H536V270.25H540V268.25H536ZM536 238.25V234.25H534V238.25H530V240.25H534V244.25H536V240.25H540V238.25H536Z" fill="#193C66"/>
</g>
<g clip-path="url(#clip67_2169_611)">
<path fill-rule="evenodd" clip-rule="evenodd" d="M402.167 214.042V208.333H399.333V214.042H393.667V216.896H399.333V222.604H402.167V216.896H407.833V214.042H402.167ZM402.167 171.229V165.521H399.333V171.229H393.667V174.083H399.333V179.792H402.167V174.083H407.833V171.229H402.167ZM359.667 214.042V208.333H356.833V214.042H351.167V216.896H356.833V222.604H359.667V216.896H365.333V214.042H359.667ZM359.667 171.229V165.521H356.833V171.229H351.167V174.083H356.833V179.792H359.667V174.083H365.333V171.229H359.667Z" fill="#193C66"/>
<path fill-rule="evenodd" clip-rule="evenodd" d="M396 268.25V264.25H394V268.25H390V270.25H394V274.25H396V270.25H400V268.25H396ZM396 238.25V234.25H394V238.25H390V240.25H394V244.25H396V240.25H400V238.25H396ZM366 268.25V264.25H364V268.25H360V270.25H364V274.25H366V270.25H370V268.25H366ZM366 238.25V234.25H364V238.25H360V240.25H364V244.25H366V240.25H370V238.25H366Z" fill="#193C66"/>
</g>
<g clip-path="url(#clip68_2169_611)">
<path fill-rule="evenodd" clip-rule="evenodd" d="M572.167 556.542V550.833H569.333V556.542H563.667V559.396H569.333V565.104H572.167V559.396H577.833V556.542H572.167ZM572.167 513.729V508.021H569.333V513.729H563.667V516.583H569.333V522.292H572.167V516.583H577.833V513.729H572.167ZM529.667 556.542V550.833H526.833V556.542H521.167V559.396H526.833V565.104H529.667V559.396H535.333V556.542H529.667ZM529.667 513.729V508.021H526.833V513.729H521.167V516.583H526.833V522.292H529.667V516.583H535.333V513.729H529.667Z" fill="#193C66"/>
<path fill-rule="evenodd" clip-rule="evenodd" d="M566 610.75V606.75H564V610.75H560V612.75H564V616.75H566V612.75H570V610.75H566ZM566 580.75V576.75H564V580.75H560V582.75H564V586.75H566V582.75H570V580.75H566ZM536 610.75V606.75H534V610.75H530V612.75H534V616.75H536V612.75H540V610.75H536ZM536 580.75V576.75H534V580.75H530V582.75H534V586.75H536V582.75H540V580.75H536Z" fill="#193C66"/>
</g>
<g clip-path="url(#clip69_2169_611)">
<path fill-rule="evenodd" clip-rule="evenodd" d="M402.167 556.542V550.833H399.333V556.542H393.667V559.396H399.333V565.104H402.167V559.396H407.833V556.542H402.167ZM402.167 513.729V508.021H399.333V513.729H393.667V516.583H399.333V522.292H402.167V516.583H407.833V513.729H402.167ZM359.667 556.542V550.833H356.833V556.542H351.167V559.396H356.833V565.104H359.667V559.396H365.333V556.542H359.667ZM359.667 513.729V508.021H356.833V513.729H351.167V516.583H356.833V522.292H359.667V516.583H365.333V513.729H359.667Z" fill="#193C66"/>
<path fill-rule="evenodd" clip-rule="evenodd" d="M396 610.75V606.75H394V610.75H390V612.75H394V616.75H396V612.75H400V610.75H396ZM396 580.75V576.75H394V580.75H390V582.75H394V586.75H396V582.75H400V580.75H396ZM366 610.75V606.75H364V610.75H360V612.75H364V616.75H366V612.75H370V610.75H366ZM366 580.75V576.75H364V580.75H360V582.75H364V586.75H366V582.75H370V580.75H366Z" fill="#193C66"/>
</g>
<g clip-path="url(#clip70_2169_611)">
<path fill-rule="evenodd" clip-rule="evenodd" d="M572.167 128.417V122.708H569.333V128.417H563.667V131.271H569.333V136.979H572.167V131.271H577.833V128.417H572.167ZM572.167 85.6043V79.896H569.333V85.6043H563.667V88.4585H569.333V94.1668H572.167V88.4585H577.833V85.6043H572.167ZM529.667 128.417V122.708H526.833V128.417H521.167V131.271H526.833V136.979H529.667V131.271H535.333V128.417H529.667ZM529.667 85.6043V79.896H526.833V85.6043H521.167V88.4585H526.833V94.1668H529.667V88.4585H535.333V85.6043H529.667Z" fill="#193C66"/>
<path fill-rule="evenodd" clip-rule="evenodd" d="M566 182.625V178.625H564V182.625H560V184.625H564V188.625H566V184.625H570V182.625H566ZM566 152.625V148.625H564V152.625H560V154.625H564V158.625H566V154.625H570V152.625H566ZM536 182.625V178.625H534V182.625H530V184.625H534V188.625H536V184.625H540V182.625H536ZM536 152.625V148.625H534V152.625H530V154.625H534V158.625H536V154.625H540V152.625H536Z" fill="#193C66"/>
<g clip-path="url(#clip71_2169_611)">
<path fill-rule="evenodd" clip-rule="evenodd" d="M566 182.625V178.625H564V182.625H560V184.625H564V188.625H566V184.625H570V182.625H566ZM566 152.625V148.625H564V152.625H560V154.625H564V158.625H566V154.625H570V152.625H566ZM536 182.625V178.625H534V182.625H530V184.625H534V188.625H536V184.625H540V182.625H536ZM536 152.625V148.625H534V152.625H530V154.625H534V158.625H536V154.625H540V152.625H536Z" fill="#193C66"/>
</g>
</g>
<g clip-path="url(#clip72_2169_611)">
<path fill-rule="evenodd" clip-rule="evenodd" d="M402.167 128.417V122.708H399.333V128.417H393.667V131.271H399.333V136.979H402.167V131.271H407.833V128.417H402.167ZM402.167 85.6043V79.896H399.333V85.6043H393.667V88.4585H399.333V94.1668H402.167V88.4585H407.833V85.6043H402.167ZM359.667 128.417V122.708H356.833V128.417H351.167V131.271H356.833V136.979H359.667V131.271H365.333V128.417H359.667ZM359.667 85.6043V79.896H356.833V85.6043H351.167V88.4585H356.833V94.1668H359.667V88.4585H365.333V85.6043H359.667Z" fill="#193C66"/>
<path fill-rule="evenodd" clip-rule="evenodd" d="M396 182.625V178.625H394V182.625H390V184.625H394V188.625H396V184.625H400V182.625H396ZM396 152.625V148.625H394V152.625H390V154.625H394V158.625H396V154.625H400V152.625H396ZM366 182.625V178.625H364V182.625H360V184.625H364V188.625H366V184.625H370V182.625H366ZM366 152.625V148.625H364V152.625H360V154.625H364V158.625H366V154.625H370V152.625H366Z" fill="#193C66"/>
<g clip-path="url(#clip73_2169_611)">
<path fill-rule="evenodd" clip-rule="evenodd" d="M396 182.625V178.625H394V182.625H390V184.625H394V188.625H396V184.625H400V182.625H396ZM396 152.625V148.625H394V152.625H390V154.625H394V158.625H396V154.625H400V152.625H396ZM366 182.625V178.625H364V182.625H360V184.625H364V188.625H366V184.625H370V182.625H366ZM366 152.625V148.625H364V152.625H360V154.625H364V158.625H366V154.625H370V152.625H366Z" fill="#193C66"/>
</g>
</g>
<g clip-path="url(#clip74_2169_611)">
<path fill-rule="evenodd" clip-rule="evenodd" d="M572.167 470.917V465.208H569.333V470.917H563.667V473.771H569.333V479.479H572.167V473.771H577.833V470.917H572.167ZM572.167 428.104V422.396H569.333V428.104H563.667V430.958H569.333V436.667H572.167V430.958H577.833V428.104H572.167ZM529.667 470.917V465.208H526.833V470.917H521.167V473.771H526.833V479.479H529.667V473.771H535.333V470.917H529.667ZM529.667 428.104V422.396H526.833V428.104H521.167V430.958H526.833V436.667H529.667V430.958H535.333V428.104H529.667Z" fill="#193C66"/>
<path fill-rule="evenodd" clip-rule="evenodd" d="M566 525.125V521.125H564V525.125H560V527.125H564V531.125H566V527.125H570V525.125H566ZM566 495.125V491.125H564V495.125H560V497.125H564V501.125H566V497.125H570V495.125H566ZM536 525.125V521.125H534V525.125H530V527.125H534V531.125H536V527.125H540V525.125H536ZM536 495.125V491.125H534V495.125H530V497.125H534V501.125H536V497.125H540V495.125H536Z" fill="#193C66"/>
<g clip-path="url(#clip75_2169_611)">
<path fill-rule="evenodd" clip-rule="evenodd" d="M566 525.125V521.125H564V525.125H560V527.125H564V531.125H566V527.125H570V525.125H566ZM566 495.125V491.125H564V495.125H560V497.125H564V501.125H566V497.125H570V495.125H566ZM536 525.125V521.125H534V525.125H530V527.125H534V531.125H536V527.125H540V525.125H536ZM536 495.125V491.125H534V495.125H530V497.125H534V501.125H536V497.125H540V495.125H536Z" fill="#193C66"/>
</g>
</g>
<g clip-path="url(#clip76_2169_611)">
<path fill-rule="evenodd" clip-rule="evenodd" d="M402.167 470.917V465.208H399.333V470.917H393.667V473.771H399.333V479.479H402.167V473.771H407.833V470.917H402.167ZM402.167 428.104V422.396H399.333V428.104H393.667V430.958H399.333V436.667H402.167V430.958H407.833V428.104H402.167ZM359.667 470.917V465.208H356.833V470.917H351.167V473.771H356.833V479.479H359.667V473.771H365.333V470.917H359.667ZM359.667 428.104V422.396H356.833V428.104H351.167V430.958H356.833V436.667H359.667V430.958H365.333V428.104H359.667Z" fill="#193C66"/>
<path fill-rule="evenodd" clip-rule="evenodd" d="M396 525.125V521.125H394V525.125H390V527.125H394V531.125H396V527.125H400V525.125H396ZM396 495.125V491.125H394V495.125H390V497.125H394V501.125H396V497.125H400V495.125H396ZM366 525.125V521.125H364V525.125H360V527.125H364V531.125H366V527.125H370V525.125H366ZM366 495.125V491.125H364V495.125H360V497.125H364V501.125H366V497.125H370V495.125H366Z" fill="#193C66"/>
<g clip-path="url(#clip77_2169_611)">
<path fill-rule="evenodd" clip-rule="evenodd" d="M396 525.125V521.125H394V525.125H390V527.125H394V531.125H396V527.125H400V525.125H396ZM396 495.125V491.125H394V495.125H390V497.125H394V501.125H396V497.125H400V495.125H396ZM366 525.125V521.125H364V525.125H360V527.125H364V531.125H366V527.125H370V525.125H366ZM366 495.125V491.125H364V495.125H360V497.125H364V501.125H366V497.125H370V495.125H366Z" fill="#193C66"/>
</g>
</g>
<g clip-path="url(#clip78_2169_611)">
<path fill-rule="evenodd" clip-rule="evenodd" d="M572.167 299.667V293.958H569.333V299.667H563.667V302.521H569.333V308.229H572.167V302.521H577.833V299.667H572.167ZM572.167 256.854V251.146H569.333V256.854H563.667V259.708H569.333V265.417H572.167V259.708H577.833V256.854H572.167ZM529.667 299.667V293.958H526.833V299.667H521.167V302.521H526.833V308.229H529.667V302.521H535.333V299.667H529.667ZM529.667 256.854V251.146H526.833V256.854H521.167V259.708H526.833V265.417H529.667V259.708H535.333V256.854H529.667Z" fill="#193C66"/>
<path fill-rule="evenodd" clip-rule="evenodd" d="M566 353.875V349.875H564V353.875H560V355.875H564V359.875H566V355.875H570V353.875H566ZM566 323.875V319.875H564V323.875H560V325.875H564V329.875H566V325.875H570V323.875H566ZM536 353.875V349.875H534V353.875H530V355.875H534V359.875H536V355.875H540V353.875H536ZM536 323.875V319.875H534V323.875H530V325.875H534V329.875H536V325.875H540V323.875H536Z" fill="#193C66"/>
<g clip-path="url(#clip79_2169_611)">
<path fill-rule="evenodd" clip-rule="evenodd" d="M566 353.875V349.875H564V353.875H560V355.875H564V359.875H566V355.875H570V353.875H566ZM566 323.875V319.875H564V323.875H560V325.875H564V329.875H566V325.875H570V323.875H566ZM536 353.875V349.875H534V353.875H530V355.875H534V359.875H536V355.875H540V353.875H536ZM536 323.875V319.875H534V323.875H530V325.875H534V329.875H536V325.875H540V323.875H536Z" fill="#193C66"/>
</g>
</g>
<g clip-path="url(#clip80_2169_611)">
<path fill-rule="evenodd" clip-rule="evenodd" d="M402.167 299.667V293.958H399.333V299.667H393.667V302.521H399.333V308.229H402.167V302.521H407.833V299.667H402.167ZM402.167 256.854V251.146H399.333V256.854H393.667V259.708H399.333V265.417H402.167V259.708H407.833V256.854H402.167ZM359.667 299.667V293.958H356.833V299.667H351.167V302.521H356.833V308.229H359.667V302.521H365.333V299.667H359.667ZM359.667 256.854V251.146H356.833V256.854H351.167V259.708H356.833V265.417H359.667V259.708H365.333V256.854H359.667Z" fill="#193C66"/>
<path fill-rule="evenodd" clip-rule="evenodd" d="M396 353.875V349.875H394V353.875H390V355.875H394V359.875H396V355.875H400V353.875H396ZM396 323.875V319.875H394V323.875H390V325.875H394V329.875H396V325.875H400V323.875H396ZM366 353.875V349.875H364V353.875H360V355.875H364V359.875H366V355.875H370V353.875H366ZM366 323.875V319.875H364V323.875H360V325.875H364V329.875H366V325.875H370V323.875H366Z" fill="#193C66"/>
<g clip-path="url(#clip81_2169_611)">
<path fill-rule="evenodd" clip-rule="evenodd" d="M396 353.875V349.875H394V353.875H390V355.875H394V359.875H396V355.875H400V353.875H396ZM396 323.875V319.875H394V323.875H390V325.875H394V329.875H396V325.875H400V323.875H396ZM366 353.875V349.875H364V353.875H360V355.875H364V359.875H366V355.875H370V353.875H366ZM366 323.875V319.875H364V323.875H360V325.875H364V329.875H366V325.875H370V323.875H366Z" fill="#193C66"/>
</g>
</g>
<g clip-path="url(#clip82_2169_611)">
<path fill-rule="evenodd" clip-rule="evenodd" d="M487.167 42.7918V37.0835H484.333V42.7918H478.667V45.646H484.333V51.3543H487.167V45.646H492.833V42.7918H487.167ZM487.167 -0.0206709V-5.729H484.333V-0.0206709H478.667V2.8335H484.333V8.54183H487.167V2.8335H492.833V-0.0206709H487.167ZM444.667 42.7918V37.0835H441.833V42.7918H436.167V45.646H441.833V51.3543H444.667V45.646H450.333V42.7918H444.667ZM444.667 -0.0206709V-5.729H441.833V-0.0206709H436.167V2.8335H441.833V8.54183H444.667V2.8335H450.333V-0.0206709H444.667Z" fill="#193C66"/>
<g clip-path="url(#clip83_2169_611)">
<path fill-rule="evenodd" clip-rule="evenodd" d="M481 97V93H479V97H475V99H479V103H481V99H485V97H481ZM481 67V63H479V67H475V69H479V73H481V69H485V67H481ZM451 97V93H449V97H445V99H449V103H451V99H455V97H451ZM451 67V63H449V67H445V69H449V73H451V69H455V67H451Z" fill="#193C66"/>
</g>
<g clip-path="url(#clip84_2169_611)">
<path fill-rule="evenodd" clip-rule="evenodd" d="M481 97V93H479V97H475V99H479V103H481V99H485V97H481ZM481 67V63H479V67H475V69H479V73H481V69H485V67H481ZM451 97V93H449V97H445V99H449V103H451V99H455V97H451ZM451 67V63H449V67H445V69H449V73H451V69H455V67H451Z" fill="#193C66"/>
</g>
</g>
<g clip-path="url(#clip85_2169_611)">
<path fill-rule="evenodd" clip-rule="evenodd" d="M487.167 385.292V379.583H484.333V385.292H478.667V388.146H484.333V393.854H487.167V388.146H492.833V385.292H487.167ZM487.167 342.479V336.771H484.333V342.479H478.667V345.333H484.333V351.042H487.167V345.333H492.833V342.479H487.167ZM444.667 385.292V379.583H441.833V385.292H436.167V388.146H441.833V393.854H444.667V388.146H450.333V385.292H444.667ZM444.667 342.479V336.771H441.833V342.479H436.167V345.333H441.833V351.042H444.667V345.333H450.333V342.479H444.667Z" fill="#193C66"/>
<g clip-path="url(#clip86_2169_611)">
<path fill-rule="evenodd" clip-rule="evenodd" d="M481 439.5V435.5H479V439.5H475V441.5H479V445.5H481V441.5H485V439.5H481ZM481 409.5V405.5H479V409.5H475V411.5H479V415.5H481V411.5H485V409.5H481ZM451 439.5V435.5H449V439.5H445V441.5H449V445.5H451V441.5H455V439.5H451ZM451 409.5V405.5H449V409.5H445V411.5H449V415.5H451V411.5H455V409.5H451Z" fill="#193C66"/>
</g>
<g clip-path="url(#clip87_2169_611)">
<path fill-rule="evenodd" clip-rule="evenodd" d="M481 439.5V435.5H479V439.5H475V441.5H479V445.5H481V441.5H485V439.5H481ZM481 409.5V405.5H479V409.5H475V411.5H479V415.5H481V411.5H485V409.5H481ZM451 439.5V435.5H449V439.5H445V441.5H449V445.5H451V441.5H455V439.5H451ZM451 409.5V405.5H449V409.5H445V411.5H449V415.5H451V411.5H455V409.5H451Z" fill="#193C66"/>
</g>
</g>
<g clip-path="url(#clip88_2169_611)">
<path fill-rule="evenodd" clip-rule="evenodd" d="M487.167 214.042V208.333H484.333V214.042H478.667V216.896H484.333V222.604H487.167V216.896H492.833V214.042H487.167ZM487.167 171.229V165.521H484.333V171.229H478.667V174.083H484.333V179.792H487.167V174.083H492.833V171.229H487.167ZM444.667 214.042V208.333H441.833V214.042H436.167V216.896H441.833V222.604H444.667V216.896H450.333V214.042H444.667ZM444.667 171.229V165.521H441.833V171.229H436.167V174.083H441.833V179.792H444.667V174.083H450.333V171.229H444.667Z" fill="#193C66"/>
<g clip-path="url(#clip89_2169_611)">
<path fill-rule="evenodd" clip-rule="evenodd" d="M481 268.25V264.25H479V268.25H475V270.25H479V274.25H481V270.25H485V268.25H481ZM481 238.25V234.25H479V238.25H475V240.25H479V244.25H481V240.25H485V238.25H481ZM451 268.25V264.25H449V268.25H445V270.25H449V274.25H451V270.25H455V268.25H451ZM451 238.25V234.25H449V238.25H445V240.25H449V244.25H451V240.25H455V238.25H451Z" fill="#193C66"/>
</g>
<g clip-path="url(#clip90_2169_611)">
<path fill-rule="evenodd" clip-rule="evenodd" d="M481 268.25V264.25H479V268.25H475V270.25H479V274.25H481V270.25H485V268.25H481ZM481 238.25V234.25H479V238.25H475V240.25H479V244.25H481V240.25H485V238.25H481ZM451 268.25V264.25H449V268.25H445V270.25H449V274.25H451V270.25H455V268.25H451ZM451 238.25V234.25H449V238.25H445V240.25H449V244.25H451V240.25H455V238.25H451Z" fill="#193C66"/>
</g>
</g>
<g clip-path="url(#clip91_2169_611)">
<path fill-rule="evenodd" clip-rule="evenodd" d="M487.167 556.542V550.833H484.333V556.542H478.667V559.396H484.333V565.104H487.167V559.396H492.833V556.542H487.167ZM487.167 513.729V508.021H484.333V513.729H478.667V516.583H484.333V522.292H487.167V516.583H492.833V513.729H487.167ZM444.667 556.542V550.833H441.833V556.542H436.167V559.396H441.833V565.104H444.667V559.396H450.333V556.542H444.667ZM444.667 513.729V508.021H441.833V513.729H436.167V516.583H441.833V522.292H444.667V516.583H450.333V513.729H444.667Z" fill="#193C66"/>
<g clip-path="url(#clip92_2169_611)">
<path fill-rule="evenodd" clip-rule="evenodd" d="M481 610.75V606.75H479V610.75H475V612.75H479V616.75H481V612.75H485V610.75H481ZM481 580.75V576.75H479V580.75H475V582.75H479V586.75H481V582.75H485V580.75H481ZM451 610.75V606.75H449V610.75H445V612.75H449V616.75H451V612.75H455V610.75H451ZM451 580.75V576.75H449V580.75H445V582.75H449V586.75H451V582.75H455V580.75H451Z" fill="#193C66"/>
</g>
<g clip-path="url(#clip93_2169_611)">
<path fill-rule="evenodd" clip-rule="evenodd" d="M481 610.75V606.75H479V610.75H475V612.75H479V616.75H481V612.75H485V610.75H481ZM481 580.75V576.75H479V580.75H475V582.75H479V586.75H481V582.75H485V580.75H481ZM451 610.75V606.75H449V610.75H445V612.75H449V616.75H451V612.75H455V610.75H451ZM451 580.75V576.75H449V580.75H445V582.75H449V586.75H451V582.75H455V580.75H451Z" fill="#193C66"/>
</g>
</g>
<g clip-path="url(#clip94_2169_611)">
<path fill-rule="evenodd" clip-rule="evenodd" d="M487.167 128.417V122.708H484.333V128.417H478.667V131.271H484.333V136.979H487.167V131.271H492.833V128.417H487.167ZM487.167 85.6043V79.896H484.333V85.6043H478.667V88.4585H484.333V94.1668H487.167V88.4585H492.833V85.6043H487.167ZM444.667 128.417V122.708H441.833V128.417H436.167V131.271H441.833V136.979H444.667V131.271H450.333V128.417H444.667ZM444.667 85.6043V79.896H441.833V85.6043H436.167V88.4585H441.833V94.1668H444.667V88.4585H450.333V85.6043H444.667Z" fill="#193C66"/>
<g clip-path="url(#clip95_2169_611)">
<path fill-rule="evenodd" clip-rule="evenodd" d="M481 182.625V178.625H479V182.625H475V184.625H479V188.625H481V184.625H485V182.625H481ZM481 152.625V148.625H479V152.625H475V154.625H479V158.625H481V154.625H485V152.625H481ZM451 182.625V178.625H449V182.625H445V184.625H449V188.625H451V184.625H455V182.625H451ZM451 152.625V148.625H449V152.625H445V154.625H449V158.625H451V154.625H455V152.625H451Z" fill="#193C66"/>
</g>
<g clip-path="url(#clip96_2169_611)">
<path fill-rule="evenodd" clip-rule="evenodd" d="M481 182.625V178.625H479V182.625H475V184.625H479V188.625H481V184.625H485V182.625H481ZM481 152.625V148.625H479V152.625H475V154.625H479V158.625H481V154.625H485V152.625H481ZM451 182.625V178.625H449V182.625H445V184.625H449V188.625H451V184.625H455V182.625H451ZM451 152.625V148.625H449V152.625H445V154.625H449V158.625H451V154.625H455V152.625H451Z" fill="#193C66"/>
</g>
</g>
<g clip-path="url(#clip97_2169_611)">
<path fill-rule="evenodd" clip-rule="evenodd" d="M487.167 470.917V465.208H484.333V470.917H478.667V473.771H484.333V479.479H487.167V473.771H492.833V470.917H487.167ZM487.167 428.104V422.396H484.333V428.104H478.667V430.958H484.333V436.667H487.167V430.958H492.833V428.104H487.167ZM444.667 470.917V465.208H441.833V470.917H436.167V473.771H441.833V479.479H444.667V473.771H450.333V470.917H444.667ZM444.667 428.104V422.396H441.833V428.104H436.167V430.958H441.833V436.667H444.667V430.958H450.333V428.104H444.667Z" fill="#193C66"/>
<g clip-path="url(#clip98_2169_611)">
<path fill-rule="evenodd" clip-rule="evenodd" d="M481 525.125V521.125H479V525.125H475V527.125H479V531.125H481V527.125H485V525.125H481ZM481 495.125V491.125H479V495.125H475V497.125H479V501.125H481V497.125H485V495.125H481ZM451 525.125V521.125H449V525.125H445V527.125H449V531.125H451V527.125H455V525.125H451ZM451 495.125V491.125H449V495.125H445V497.125H449V501.125H451V497.125H455V495.125H451Z" fill="#193C66"/>
</g>
<g clip-path="url(#clip99_2169_611)">
<path fill-rule="evenodd" clip-rule="evenodd" d="M481 525.125V521.125H479V525.125H475V527.125H479V531.125H481V527.125H485V525.125H481ZM481 495.125V491.125H479V495.125H475V497.125H479V501.125H481V497.125H485V495.125H481ZM451 525.125V521.125H449V525.125H445V527.125H449V531.125H451V527.125H455V525.125H451ZM451 495.125V491.125H449V495.125H445V497.125H449V501.125H451V497.125H455V495.125H451Z" fill="#193C66"/>
</g>
</g>
<g clip-path="url(#clip100_2169_611)">
<path fill-rule="evenodd" clip-rule="evenodd" d="M487.167 299.667V293.958H484.333V299.667H478.667V302.521H484.333V308.229H487.167V302.521H492.833V299.667H487.167ZM487.167 256.854V251.146H484.333V256.854H478.667V259.708H484.333V265.417H487.167V259.708H492.833V256.854H487.167ZM444.667 299.667V293.958H441.833V299.667H436.167V302.521H441.833V308.229H444.667V302.521H450.333V299.667H444.667ZM444.667 256.854V251.146H441.833V256.854H436.167V259.708H441.833V265.417H444.667V259.708H450.333V256.854H444.667Z" fill="#193C66"/>
<g clip-path="url(#clip101_2169_611)">
<path fill-rule="evenodd" clip-rule="evenodd" d="M481 353.875V349.875H479V353.875H475V355.875H479V359.875H481V355.875H485V353.875H481ZM481 323.875V319.875H479V323.875H475V325.875H479V329.875H481V325.875H485V323.875H481ZM451 353.875V349.875H449V353.875H445V355.875H449V359.875H451V355.875H455V353.875H451ZM451 323.875V319.875H449V323.875H445V325.875H449V329.875H451V325.875H455V323.875H451Z" fill="#193C66"/>
</g>
<g clip-path="url(#clip102_2169_611)">
<path fill-rule="evenodd" clip-rule="evenodd" d="M481 353.875V349.875H479V353.875H475V355.875H479V359.875H481V355.875H485V353.875H481ZM481 323.875V319.875H479V323.875H475V325.875H479V329.875H481V325.875H485V323.875H481ZM451 353.875V349.875H449V353.875H445V355.875H449V359.875H451V355.875H455V353.875H451ZM451 323.875V319.875H449V323.875H445V325.875H449V329.875H451V325.875H455V323.875H451Z" fill="#193C66"/>
</g>
</g>
<defs>
<clipPath id="clip0_2169_611">
<rect width="85" height="85.625" fill="white" transform="translate(170 -20)"/>
</clipPath>
<clipPath id="clip1_2169_611">
<rect width="85" height="85.625" fill="white" transform="translate(0 -20)"/>
</clipPath>
<clipPath id="clip2_2169_611">
<rect width="85" height="85.625" fill="white" transform="translate(170 322.5)"/>
</clipPath>
<clipPath id="clip3_2169_611">
<rect width="85" height="85.625" fill="white" transform="translate(0 322.5)"/>
</clipPath>
<clipPath id="clip4_2169_611">
<rect width="85" height="85.625" fill="white" transform="translate(170 151.25)"/>
</clipPath>
<clipPath id="clip5_2169_611">
<rect width="85" height="85.625" fill="white" transform="translate(0 151.25)"/>
</clipPath>
<clipPath id="clip6_2169_611">
<rect width="85" height="85.625" fill="white" transform="translate(170 493.75)"/>
</clipPath>
<clipPath id="clip7_2169_611">
<rect width="85" height="85.625" fill="white" transform="translate(0 493.75)"/>
</clipPath>
<clipPath id="clip8_2169_611">
<rect width="85" height="85.625" fill="white" transform="translate(170 65.625)"/>
</clipPath>
<clipPath id="clip9_2169_611">
<rect width="60" height="60" fill="white" transform="translate(183 138.625)"/>
</clipPath>
<clipPath id="clip10_2169_611">
<rect width="85" height="85.625" fill="white" transform="translate(0 65.625)"/>
</clipPath>
<clipPath id="clip11_2169_611">
<rect width="60" height="60" fill="white" transform="translate(13 138.625)"/>
</clipPath>
<clipPath id="clip12_2169_611">
<rect width="85" height="85.625" fill="white" transform="translate(170 408.125)"/>
</clipPath>
<clipPath id="clip13_2169_611">
<rect width="60" height="60" fill="white" transform="translate(183 481.125)"/>
</clipPath>
<clipPath id="clip14_2169_611">
<rect width="85" height="85.625" fill="white" transform="translate(0 408.125)"/>
</clipPath>
<clipPath id="clip15_2169_611">
<rect width="60" height="60" fill="white" transform="translate(13 481.125)"/>
</clipPath>
<clipPath id="clip16_2169_611">
<rect width="85" height="85.625" fill="white" transform="translate(170 236.875)"/>
</clipPath>
<clipPath id="clip17_2169_611">
<rect width="60" height="60" fill="white" transform="translate(183 309.875)"/>
</clipPath>
<clipPath id="clip18_2169_611">
<rect width="85" height="85.625" fill="white" transform="translate(0 236.875)"/>
</clipPath>
<clipPath id="clip19_2169_611">
<rect width="60" height="60" fill="white" transform="translate(13 309.875)"/>
</clipPath>
<clipPath id="clip20_2169_611">
<rect width="85" height="85.625" fill="white" transform="translate(255 -20)"/>
</clipPath>
<clipPath id="clip21_2169_611">
<rect width="60" height="60" fill="white" transform="translate(268 53)"/>
</clipPath>
<clipPath id="clip22_2169_611">
<rect width="60" height="60" fill="white" transform="translate(268 53)"/>
</clipPath>
<clipPath id="clip23_2169_611">
<rect width="85" height="85.625" fill="white" transform="translate(85 -20)"/>
</clipPath>
<clipPath id="clip24_2169_611">
<rect width="60" height="60" fill="white" transform="translate(98 53)"/>
</clipPath>
<clipPath id="clip25_2169_611">
<rect width="60" height="60" fill="white" transform="translate(98 53)"/>
</clipPath>
<clipPath id="clip26_2169_611">
<rect width="85" height="85.625" fill="white" transform="translate(255 322.5)"/>
</clipPath>
<clipPath id="clip27_2169_611">
<rect width="60" height="60" fill="white" transform="translate(268 395.5)"/>
</clipPath>
<clipPath id="clip28_2169_611">
<rect width="60" height="60" fill="white" transform="translate(268 395.5)"/>
</clipPath>
<clipPath id="clip29_2169_611">
<rect width="85" height="85.625" fill="white" transform="translate(85 322.5)"/>
</clipPath>
<clipPath id="clip30_2169_611">
<rect width="60" height="60" fill="white" transform="translate(98 395.5)"/>
</clipPath>
<clipPath id="clip31_2169_611">
<rect width="60" height="60" fill="white" transform="translate(98 395.5)"/>
</clipPath>
<clipPath id="clip32_2169_611">
<rect width="85" height="85.625" fill="white" transform="translate(255 151.25)"/>
</clipPath>
<clipPath id="clip33_2169_611">
<rect width="60" height="60" fill="white" transform="translate(268 224.25)"/>
</clipPath>
<clipPath id="clip34_2169_611">
<rect width="60" height="60" fill="white" transform="translate(268 224.25)"/>
</clipPath>
<clipPath id="clip35_2169_611">
<rect width="85" height="85.625" fill="white" transform="translate(85 151.25)"/>
</clipPath>
<clipPath id="clip36_2169_611">
<rect width="60" height="60" fill="white" transform="translate(98 224.25)"/>
</clipPath>
<clipPath id="clip37_2169_611">
<rect width="60" height="60" fill="white" transform="translate(98 224.25)"/>
</clipPath>
<clipPath id="clip38_2169_611">
<rect width="85" height="85.625" fill="white" transform="translate(255 493.75)"/>
</clipPath>
<clipPath id="clip39_2169_611">
<rect width="60" height="60" fill="white" transform="translate(268 566.75)"/>
</clipPath>
<clipPath id="clip40_2169_611">
<rect width="60" height="60" fill="white" transform="translate(268 566.75)"/>
</clipPath>
<clipPath id="clip41_2169_611">
<rect width="85" height="85.625" fill="white" transform="translate(85 493.75)"/>
</clipPath>
<clipPath id="clip42_2169_611">
<rect width="60" height="60" fill="white" transform="translate(98 566.75)"/>
</clipPath>
<clipPath id="clip43_2169_611">
<rect width="60" height="60" fill="white" transform="translate(98 566.75)"/>
</clipPath>
<clipPath id="clip44_2169_611">
<rect width="85" height="85.625" fill="white" transform="translate(255 65.625)"/>
</clipPath>
<clipPath id="clip45_2169_611">
<rect width="60" height="60" fill="white" transform="translate(268 138.625)"/>
</clipPath>
<clipPath id="clip46_2169_611">
<rect width="60" height="60" fill="white" transform="translate(268 138.625)"/>
</clipPath>
<clipPath id="clip47_2169_611">
<rect width="85" height="85.625" fill="white" transform="translate(85 65.625)"/>
</clipPath>
<clipPath id="clip48_2169_611">
<rect width="60" height="60" fill="white" transform="translate(98 138.625)"/>
</clipPath>
<clipPath id="clip49_2169_611">
<rect width="60" height="60" fill="white" transform="translate(98 138.625)"/>
</clipPath>
<clipPath id="clip50_2169_611">
<rect width="85" height="85.625" fill="white" transform="translate(255 408.125)"/>
</clipPath>
<clipPath id="clip51_2169_611">
<rect width="60" height="60" fill="white" transform="translate(268 481.125)"/>
</clipPath>
<clipPath id="clip52_2169_611">
<rect width="60" height="60" fill="white" transform="translate(268 481.125)"/>
</clipPath>
<clipPath id="clip53_2169_611">
<rect width="85" height="85.625" fill="white" transform="translate(85 408.125)"/>
</clipPath>
<clipPath id="clip54_2169_611">
<rect width="60" height="60" fill="white" transform="translate(98 481.125)"/>
</clipPath>
<clipPath id="clip55_2169_611">
<rect width="60" height="60" fill="white" transform="translate(98 481.125)"/>
</clipPath>
<clipPath id="clip56_2169_611">
<rect width="85" height="85.625" fill="white" transform="translate(255 236.875)"/>
</clipPath>
<clipPath id="clip57_2169_611">
<rect width="60" height="60" fill="white" transform="translate(268 309.875)"/>
</clipPath>
<clipPath id="clip58_2169_611">
<rect width="60" height="60" fill="white" transform="translate(268 309.875)"/>
</clipPath>
<clipPath id="clip59_2169_611">
<rect width="85" height="85.625" fill="white" transform="translate(85 236.875)"/>
</clipPath>
<clipPath id="clip60_2169_611">
<rect width="60" height="60" fill="white" transform="translate(98 309.875)"/>
</clipPath>
<clipPath id="clip61_2169_611">
<rect width="60" height="60" fill="white" transform="translate(98 309.875)"/>
</clipPath>
<clipPath id="clip62_2169_611">
<rect width="85" height="85.625" fill="white" transform="translate(507 -20)"/>
</clipPath>
<clipPath id="clip63_2169_611">
<rect width="85" height="85.625" fill="white" transform="translate(337 -20)"/>
</clipPath>
<clipPath id="clip64_2169_611">
<rect width="85" height="85.625" fill="white" transform="translate(507 322.5)"/>
</clipPath>
<clipPath id="clip65_2169_611">
<rect width="85" height="85.625" fill="white" transform="translate(337 322.5)"/>
</clipPath>
<clipPath id="clip66_2169_611">
<rect width="85" height="85.625" fill="white" transform="translate(507 151.25)"/>
</clipPath>
<clipPath id="clip67_2169_611">
<rect width="85" height="85.625" fill="white" transform="translate(337 151.25)"/>
</clipPath>
<clipPath id="clip68_2169_611">
<rect width="85" height="85.625" fill="white" transform="translate(507 493.75)"/>
</clipPath>
<clipPath id="clip69_2169_611">
<rect width="85" height="85.625" fill="white" transform="translate(337 493.75)"/>
</clipPath>
<clipPath id="clip70_2169_611">
<rect width="85" height="85.625" fill="white" transform="translate(507 65.625)"/>
</clipPath>
<clipPath id="clip71_2169_611">
<rect width="60" height="60" fill="white" transform="translate(520 138.625)"/>
</clipPath>
<clipPath id="clip72_2169_611">
<rect width="85" height="85.625" fill="white" transform="translate(337 65.625)"/>
</clipPath>
<clipPath id="clip73_2169_611">
<rect width="60" height="60" fill="white" transform="translate(350 138.625)"/>
</clipPath>
<clipPath id="clip74_2169_611">
<rect width="85" height="85.625" fill="white" transform="translate(507 408.125)"/>
</clipPath>
<clipPath id="clip75_2169_611">
<rect width="60" height="60" fill="white" transform="translate(520 481.125)"/>
</clipPath>
<clipPath id="clip76_2169_611">
<rect width="85" height="85.625" fill="white" transform="translate(337 408.125)"/>
</clipPath>
<clipPath id="clip77_2169_611">
<rect width="60" height="60" fill="white" transform="translate(350 481.125)"/>
</clipPath>
<clipPath id="clip78_2169_611">
<rect width="85" height="85.625" fill="white" transform="translate(507 236.875)"/>
</clipPath>
<clipPath id="clip79_2169_611">
<rect width="60" height="60" fill="white" transform="translate(520 309.875)"/>
</clipPath>
<clipPath id="clip80_2169_611">
<rect width="85" height="85.625" fill="white" transform="translate(337 236.875)"/>
</clipPath>
<clipPath id="clip81_2169_611">
<rect width="60" height="60" fill="white" transform="translate(350 309.875)"/>
</clipPath>
<clipPath id="clip82_2169_611">
<rect width="85" height="85.625" fill="white" transform="translate(422 -20)"/>
</clipPath>
<clipPath id="clip83_2169_611">
<rect width="60" height="60" fill="white" transform="translate(435 53)"/>
</clipPath>
<clipPath id="clip84_2169_611">
<rect width="60" height="60" fill="white" transform="translate(435 53)"/>
</clipPath>
<clipPath id="clip85_2169_611">
<rect width="85" height="85.625" fill="white" transform="translate(422 322.5)"/>
</clipPath>
<clipPath id="clip86_2169_611">
<rect width="60" height="60" fill="white" transform="translate(435 395.5)"/>
</clipPath>
<clipPath id="clip87_2169_611">
<rect width="60" height="60" fill="white" transform="translate(435 395.5)"/>
</clipPath>
<clipPath id="clip88_2169_611">
<rect width="85" height="85.625" fill="white" transform="translate(422 151.25)"/>
</clipPath>
<clipPath id="clip89_2169_611">
<rect width="60" height="60" fill="white" transform="translate(435 224.25)"/>
</clipPath>
<clipPath id="clip90_2169_611">
<rect width="60" height="60" fill="white" transform="translate(435 224.25)"/>
</clipPath>
<clipPath id="clip91_2169_611">
<rect width="85" height="85.625" fill="white" transform="translate(422 493.75)"/>
</clipPath>
<clipPath id="clip92_2169_611">
<rect width="60" height="60" fill="white" transform="translate(435 566.75)"/>
</clipPath>
<clipPath id="clip93_2169_611">
<rect width="60" height="60" fill="white" transform="translate(435 566.75)"/>
</clipPath>
<clipPath id="clip94_2169_611">
<rect width="85" height="85.625" fill="white" transform="translate(422 65.625)"/>
</clipPath>
<clipPath id="clip95_2169_611">
<rect width="60" height="60" fill="white" transform="translate(435 138.625)"/>
</clipPath>
<clipPath id="clip96_2169_611">
<rect width="60" height="60" fill="white" transform="translate(435 138.625)"/>
</clipPath>
<clipPath id="clip97_2169_611">
<rect width="85" height="85.625" fill="white" transform="translate(422 408.125)"/>
</clipPath>
<clipPath id="clip98_2169_611">
<rect width="60" height="60" fill="white" transform="translate(435 481.125)"/>
</clipPath>
<clipPath id="clip99_2169_611">
<rect width="60" height="60" fill="white" transform="translate(435 481.125)"/>
</clipPath>
<clipPath id="clip100_2169_611">
<rect width="85" height="85.625" fill="white" transform="translate(422 236.875)"/>
</clipPath>
<clipPath id="clip101_2169_611">
<rect width="60" height="60" fill="white" transform="translate(435 309.875)"/>
</clipPath>
<clipPath id="clip102_2169_611">
<rect width="60" height="60" fill="white" transform="translate(435 309.875)"/>
</clipPath>
</defs>
</svg>
